<svg version="1.1" id="Ebene_1" xmlns="http://www.w3.org/2000/svg" xmlns:xlink="http://www.w3.org/1999/xlink" x="0px" y="0px" viewBox="0 0 694.9 195.3" style="enable-background:new 0 0 694.9 195.3;" xml:space="preserve">

                        <path class="st0" d="M645.8,190.9c4.5,1.8,9.9,2.8,15,2.8c8.1,0,19.5-2.4,28-13.7c5.2-6.9,7.2-15.5,5.5-24.1
                        c-1.8-9-7.6-17-15.8-21.8c-4.2-2.5-8.4-4.5-12.5-6.5c-9.7-4.7-18-8.8-20.3-15.6c-1.3-3.9-0.6-8.4,1.8-11.8c2.7-3.9,7.2-6,12.5-6.2
                        c0.1,0,0.3,0,0.4,0c11,0,17.6,9.7,18.6,11.2l12.9-7.6c-1-1.7-8-12.5-21.9-16.8c-3.1-1-6.4-1.5-9.6-1.5c-11.4,0-22.1,6.1-27.3,15.5
                        c-9,16.2-0.6,31.1,11.1,38.2c3.7,2.3,8.2,4.4,12.5,6.6c4.9,2.4,9.4,4.6,12.6,6.8c7.1,4.8,10.3,10.5,9.8,17.2
                        c-0.6,7.7-7.1,15.5-18.2,15.5h0c-0.8,0-1.7,0-2.5-0.1c-4.4-0.4-12.9-3-20.2-15.1l-13.2,7.8C625.8,173.4,633.4,185.9,645.8,190.9z"></path>
                                        <rect x="517.7" class="st0" width="73" height="15.7"></rect>
                                        <path class="st0" d="M75.7,164.4L87,190.7h17.3L53.1,76.6L0,190.7h17l12-26.3H75.7z M52.8,111.9l16.4,37.6H35.6L52.8,111.9z"></path>
                                        <polygon class="st0" points="411.8,195.3 444,124.8 454.5,190.7 470.7,190.7 450.5,75.5 412.1,159.3 375.1,75.5 352.5,190.7
                        368.9,190.7 380.6,124.7 "></polygon>
                                        <polygon class="st0" points="316.1,83 256.9,83 256.9,190.7 316.1,190.7 316.1,176 272.8,176 272.8,140.3 314.9,140.3 314.9,125.6
                        272.8,125.6 272.8,97.7 316.1,97.7 "></polygon>
                                        <path class="st0" d="M218.9,136.8c0-16.4-5.6-29.9-16.7-39.9c-5.5-5-11.6-8.6-18.3-10.7c-6.3-2.1-14.9-3.2-25.7-3.2h-22.4v107.6
                        h22.2c10.9,0,19.4-1,25.3-3c6.3-2,12.5-5.6,18.3-10.7C213,166.8,218.9,153.3,218.9,136.8z M190.8,165.7c-3.9,3.6-8.4,6.2-13.3,7.8
                        c-4.9,1.5-11,2.3-18.4,2.3h-7.6v-78h7.6c13.9,0,24.6,3.3,31.8,9.9c8,7.4,12,17.2,12,29C202.9,148.6,198.8,158.3,190.8,165.7z"></path>
                                        <path class="st0" d="M574.7,164.4l0.1,0.2l11.3,26.1h17.3L552.1,76.6L499,190.7h17l12-26.3H574.7z M551.8,111.9l0.2,0.5l16.2,37.1
                        h-33.6L551.8,111.9z"></path>
                    </svg>