<svg version="1.1" xmlns="http://www.w3.org/2000/svg" xmlns:xlink="http://www.w3.org/1999/xlink" x="0px" y="0px"
	 viewBox="0 0 422.1 43" style="enable-background:new 0 0 422.1 43;" xml:space="preserve">
<style type="text/css">
	.st0{fill:none;}
	.st1{display:none;}
	.st2{display:inline;}
	.st3{fill:#1D1D1B;}
	.st4{display:inline;fill:#59BBB4;}
	.st5{display:inline;fill:#9B9987;}
	.st6{display:inline;fill:#F6CB00;}
	.st7{display:inline;fill:#C39129;}
	.st8{display:inline;fill:#C8460C;}
	.st9{fill:#4B4F54;}
	.st10{display:inline;fill:#5A99B4;}
	.st11{display:inline;fill:#8CBB15;}
</style>
<g>
</g>
<g>
	<rect class="st0" width="422.1" height="43"/>
</g>
<g class="st1">
	<g class="st2">
		<path class="st3" d="M14.4,34.7v-9.2H5.1v9.2H0v-23h5.1v9.1h9.3v-9.1h5.1v23H14.4z"/>
	</g>
	<g class="st2">
		<path class="st3" d="M36.4,35.1c-7.1,0-12.2-5.3-12.2-11.8v-0.1c0-6.5,5.2-11.9,12.2-11.9c7.1,0,12.2,5.3,12.2,11.8v0.1
			C48.6,29.7,43.4,35.1,36.4,35.1z M43.3,23.2c0-3.9-2.9-7.2-7-7.2s-6.9,3.2-6.9,7.2v0.1c0,3.9,2.9,7.2,7,7.2
			C40.5,30.4,43.3,27.2,43.3,23.2L43.3,23.2z"/>
	</g>
	<g class="st2">
		<path class="st3" d="M58.5,16.3v4.9h11v4.6h-11v8.9h-5.1v-23h17.5v4.6H58.5z"/>
	</g>
	<g class="st2">
		<path class="st3" d="M93.6,34.7v-15l-6.5,9.8H87l-6.4-9.7v14.9h-5v-23H81l6,9.7l6-9.7h5.4v23H93.6z"/>
	</g>
	<g class="st2">
		<path class="st3" d="M121.7,34.7l-2.1-5.2h-9.7l-2.1,5.2h-5.2l9.8-23.1h4.7l9.8,23.1H121.7z M114.8,17.6l-3.1,7.4h6.1L114.8,17.6z
			"/>
	</g>
	<g class="st2">
		<path class="st3" d="M147.3,34.7l-11.1-14.6v14.6h-5v-23h4.7l10.8,14.1V11.7h5v23H147.3z"/>
	</g>
	<g class="st2">
		<path class="st3" d="M173.8,34.7l-11.1-14.6v14.6h-5v-23h4.7l10.8,14.1V11.7h5v23H173.8z"/>
	</g>
	<rect x="189.8" y="23" class="st4" width="11.7" height="11.7"/>
	<rect x="189.8" y="0" class="st4" width="11.7" height="11.7"/>
	<g class="st2">
		<path class="st3" d="M231,12.8v3c-2-1.9-4.4-2.8-7.1-2.8c-2.8,0-5.1,1-6.9,2.8s-2.8,4.2-2.8,7s0.9,5.2,2.8,7.1
			c1.8,1.9,4.1,2.8,6.9,2.8c2.5,0,4.7-0.8,6.5-2.4v-6.1h-7.2v-2.4h9.9v9.5c-2.4,2.6-5.4,3.9-9.1,3.9c-3.4,0-6.4-1.2-8.8-3.5
			c-2.4-2.3-3.6-5.3-3.6-8.8s1.2-6.4,3.6-8.8c2.4-2.3,5.3-3.5,8.8-3.5C226.7,10.6,229,11.3,231,12.8z"/>
		<path class="st3" d="M252.1,20.1v-2.5h2.5v17.1h-2.5v-2.5c-1,1.7-3,3.1-6.1,3.1c-2.4,0-4.5-0.8-6.2-2.6c-1.7-1.7-2.5-3.9-2.5-6.5
			s0.9-4.7,2.5-6.5c1.7-1.7,3.7-2.6,6.2-2.6C249.1,17.1,251.1,18.4,252.1,20.1z M250.6,31c1.2-1.3,1.8-2.9,1.8-4.8
			c0-1.9-0.6-3.5-1.8-4.8c-1.2-1.3-2.7-1.9-4.6-1.9c-1.8,0-3.2,0.6-4.4,1.9c-1.2,1.3-1.7,2.9-1.7,4.8c0,1.9,0.6,3.5,1.7,4.8
			c1.2,1.3,2.7,1.9,4.4,1.9C247.8,32.9,249.4,32.2,250.6,31z"/>
		<path class="st3" d="M259.5,34.7V17.6h2.5v2.9c0.9-1.9,2.8-3.2,5.3-3.2c0.4,0,0.7,0,1.1,0.1v2.7c-0.4-0.1-1-0.2-1.7-0.2
			c-2.7,0-4.6,2-4.6,4.8v10C262.1,34.7,259.5,34.7,259.5,34.7z"/>
		<path class="st3" d="M274,34.7V19.9h-2.2v-2.3h2.2V11h2.5v6.6h3.8v2.3h-3.8v14.8C276.5,34.7,274,34.7,274,34.7z"/>
		<path class="st3" d="M283.5,26.2c0-2.7,0.8-4.9,2.4-6.6s3.7-2.5,6.2-2.5c2.3,0,4.2,0.8,5.7,2.4c1.5,1.6,2.2,3.6,2.2,6
			c0,0.4,0,0.7,0,1.1h-13.9c0.1,3.8,2.5,6.3,6.2,6.3c3.1,0,5.2-1.1,6.3-2.4v2.9c-1.7,1.3-3.8,1.9-6.3,1.9c-2.6,0-4.7-0.8-6.3-2.4
			c-1.6-1.6-2.4-3.8-2.4-6.5v-0.2H283.5z M297.3,24.5c0-1.4-0.5-2.5-1.5-3.5s-2.2-1.5-3.7-1.5c-1.6,0-2.9,0.5-4,1.5
			s-1.7,2.1-1.8,3.5H297.3z"/>
		<path class="st3" d="M304.1,34.7V17.6h2.5v2.9c0.9-1.9,2.9-3.2,5.5-3.2c3.9,0,6.4,2.5,6.4,6.5v10.9H316V24.3
			c0-2.9-1.7-4.7-4.5-4.7c-2.9,0-4.9,2-4.9,4.8v10.2h-2.5V34.7z"/>
		<path class="st3" d="M323.2,41.3V17.6h2.5v2.5c1-1.7,3-3.1,6.1-3.1c2.4,0,4.5,0.9,6.2,2.6c1.7,1.7,2.5,3.9,2.5,6.5
			s-0.8,4.8-2.5,6.5c-1.7,1.7-3.7,2.6-6.2,2.6c-3.1,0-5.1-1.3-6.1-3.1v9.1L323.2,41.3L323.2,41.3z M336.2,31
			c1.2-1.3,1.8-2.9,1.8-4.8c0-1.9-0.6-3.5-1.8-4.8c-1.2-1.3-2.6-1.9-4.4-1.9s-3.4,0.6-4.6,1.9c-1.2,1.3-1.8,2.9-1.8,4.8
			c0,1.9,0.6,3.5,1.8,4.8c1.2,1.3,2.8,1.9,4.6,1.9C333.6,32.9,335.1,32.2,336.2,31z"/>
		<path class="st3" d="M346.5,34.7V19.9h-2.8v-2.3h2.8v-1.4c0-2.2,0.5-3.7,1.7-4.7c0.7-0.6,1.9-1,3.5-1c0.5,0,1,0,1.3,0.1V13
			c-0.4-0.1-1-0.2-1.6-0.2c-1.7,0-2.4,0.8-2.4,3v1.8h3.2v2.3H349v14.8C349,34.7,346.5,34.7,346.5,34.7z M355.3,34.7V11h2.5v23.7
			H355.3z"/>
		<path class="st3" d="M362,26.2c0-2.7,0.8-4.9,2.4-6.6s3.7-2.5,6.2-2.5c2.3,0,4.2,0.8,5.7,2.4c1.5,1.6,2.2,3.6,2.2,6
			c0,0.4,0,0.7,0,1.1h-14c0.1,3.8,2.5,6.3,6.2,6.3c3.1,0,5.2-1.1,6.3-2.4v2.9c-1.7,1.3-3.8,1.9-6.3,1.9c-2.6,0-4.7-0.8-6.3-2.4
			c-1.6-1.6-2.4-3.8-2.4-6.5L362,26.2L362,26.2z M375.8,24.5c0-1.4-0.5-2.5-1.5-3.5s-2.2-1.5-3.7-1.5c-1.6,0-2.9,0.5-4,1.5
			s-1.7,2.1-1.8,3.5H375.8z"/>
		<path class="st3" d="M383.2,37.2c1.5,1.7,3.9,2.6,7.2,2.6c1.9,0,3.3-0.4,4.4-1.3c1.2-1,1.8-2.8,1.8-5.3v-1.4c-1,1.7-3,3.1-6.1,3.1
			c-2.4,0-4.5-0.8-6.2-2.5c-1.7-1.7-2.5-3.8-2.5-6.4s0.9-4.7,2.5-6.4c1.7-1.7,3.7-2.5,6.2-2.5c3.1,0,5.1,1.3,6.1,3.1v-2.5h2.5V32
			c0,2.2-0.2,4-0.5,5.2c-0.3,1.3-1.1,2.4-2.3,3.3c-1.6,1.2-3.5,1.8-6,1.8c-3.2,0-5.6-0.7-7.2-2.1v-3H383.2z M395.1,30.7
			c1.2-1.3,1.8-2.8,1.8-4.7s-0.6-3.4-1.8-4.7c-1.2-1.3-2.7-1.9-4.6-1.9c-1.8,0-3.2,0.6-4.4,1.9c-1.2,1.3-1.7,2.8-1.7,4.7
			s0.6,3.4,1.7,4.7c1.2,1.3,2.7,1.9,4.4,1.9C392.4,32.6,393.9,32,395.1,30.7z"/>
		<path class="st3" d="M403.3,26.2c0-2.7,0.8-4.9,2.4-6.6s3.7-2.5,6.2-2.5c2.3,0,4.2,0.8,5.7,2.4c1.5,1.6,2.2,3.6,2.2,6
			c0,0.4,0,0.7,0,1.1h-13.9c0.1,3.8,2.5,6.3,6.2,6.3c3.1,0,5.2-1.1,6.3-2.4v2.9c-1.7,1.3-3.8,1.9-6.3,1.9c-2.6,0-4.7-0.8-6.3-2.4
			c-1.6-1.6-2.4-3.8-2.4-6.5v-0.2H403.3z M417.1,24.5c0-1.4-0.5-2.5-1.5-3.5s-2.2-1.5-3.7-1.5c-1.6,0-2.9,0.5-4,1.5
			s-1.7,2.1-1.8,3.5H417.1z"/>
	</g>
</g>
<g class="st1">
	<g class="st2">
		<path class="st3" d="M14.4,34.7v-9.2H5.1v9.2H0v-23h5.1v9.1h9.3v-9.1h5.1v23C19.5,34.7,14.4,34.7,14.4,34.7z"/>
	</g>
	<g class="st2">
		<path class="st3" d="M36.4,35.1c-7.1,0-12.2-5.3-12.2-11.8v-0.1c0-6.5,5.2-11.9,12.2-11.9c7.1,0,12.2,5.3,12.2,11.8v0.1
			C48.6,29.8,43.4,35.1,36.4,35.1z M43.3,23.2c0-3.9-2.9-7.2-7-7.2s-6.9,3.2-6.9,7.2v0.1c0,3.9,2.9,7.2,7,7.2
			C40.5,30.5,43.3,27.2,43.3,23.2L43.3,23.2z"/>
	</g>
	<g class="st2">
		<path class="st3" d="M58.5,16.3v4.9h11v4.6h-11v8.9h-5.1v-23h17.5v4.6H58.5z"/>
	</g>
	<g class="st2">
		<path class="st3" d="M93.6,34.7v-15l-6.5,9.8H87l-6.4-9.7v14.9h-5v-23H81l6,9.7l6-9.7h5.4v23C98.4,34.7,93.6,34.7,93.6,34.7z"/>
	</g>
	<g class="st2">
		<path class="st3" d="M121.7,34.7l-2.1-5.2h-9.7l-2.1,5.2h-5.2l9.8-23.1h4.7l9.8,23.1C126.9,34.7,121.7,34.7,121.7,34.7z
			 M114.8,17.7l-3.1,7.4h6.1L114.8,17.7z"/>
	</g>
	<g class="st2">
		<path class="st3" d="M147.3,34.7l-11.1-14.6v14.6h-5v-23h4.7l10.7,14.2V11.8h5v23h-4.3V34.7z"/>
	</g>
	<g class="st2">
		<path class="st3" d="M173.8,34.7l-11.1-14.6v14.6h-5v-23h4.7l10.7,14.2V11.8h5v23h-4.3V34.7z"/>
	</g>
	<rect x="189.8" y="23.1" class="st5" width="11.7" height="11.7"/>
	<rect x="189.8" y="0.1" class="st5" width="11.7" height="11.7"/>
	<g class="st2">
		<path class="st3" d="M213.1,34.7V11.1h7.2c1.8,0,3.3,0.6,4.5,1.7c1.2,1.1,1.8,2.6,1.8,4.3c0,2.3-1.1,4-3,4.8
			c3.1,0.6,4.8,2.9,4.8,5.9c0,2-0.7,3.7-2.1,5s-3.1,2-5.1,2h-8.1V34.7z M215.8,20.9h4.4c2.2,0,3.9-1.6,3.9-3.7s-1.6-3.7-3.8-3.7
			h-4.5L215.8,20.9L215.8,20.9z M215.8,32.3h5.3c2.7,0,4.7-1.9,4.7-4.6c0-1.3-0.4-2.3-1.4-3.2c-0.9-0.8-2-1.3-3.4-1.3h-5.3
			L215.8,32.3L215.8,32.3z"/>
		<path class="st3" d="M232.3,26.2c0-2.7,0.8-4.9,2.4-6.6s3.7-2.5,6.2-2.5c2.3,0,4.2,0.8,5.7,2.4c1.5,1.6,2.2,3.6,2.2,6
			c0,0.4,0,0.7,0,1.1h-13.9c0.1,3.8,2.5,6.3,6.2,6.3c3.1,0,5.2-1.1,6.3-2.4v2.9c-1.7,1.3-3.8,1.9-6.3,1.9c-2.6,0-4.7-0.8-6.3-2.4
			c-1.6-1.6-2.4-3.8-2.4-6.5v-0.2H232.3z M246.1,24.5c0-1.4-0.5-2.5-1.5-3.5s-2.2-1.5-3.7-1.5c-1.6,0-2.9,0.5-4,1.5
			s-1.7,2.1-1.8,3.5H246.1z"/>
		<path class="st3" d="M253,34.7V11.1h2.5v23.7H253V34.7z"/>
		<path class="st3" d="M274.4,20.2v-2.5h2.5v17.1h-2.5v-2.5c-1,1.7-3,3.1-6.1,3.1c-2.4,0-4.5-0.8-6.2-2.6c-1.7-1.7-2.5-3.9-2.5-6.5
			s0.9-4.7,2.5-6.5c1.7-1.7,3.7-2.6,6.2-2.6C271.4,17.1,273.4,18.4,274.4,20.2z M272.9,31c1.2-1.3,1.8-2.9,1.8-4.8
			c0-1.9-0.6-3.5-1.8-4.8c-1.2-1.3-2.7-1.9-4.6-1.9c-1.8,0-3.2,0.6-4.4,1.9c-1.2,1.3-1.7,2.9-1.7,4.8c0,1.9,0.6,3.5,1.7,4.8
			c1.2,1.3,2.7,1.9,4.4,1.9C270.2,32.9,271.7,32.3,272.9,31z M264,14.3c-0.7-0.7-0.7-1.8,0-2.4c0.7-0.7,1.7-0.7,2.4,0
			c0.7,0.6,0.7,1.7,0,2.4C265.7,15,264.7,15,264,14.3z M271,14.3c-0.7-0.7-0.7-1.8,0-2.4c0.7-0.7,1.7-0.7,2.4,0
			c0.7,0.6,0.7,1.7,0,2.4C272.7,15,271.7,15,271,14.3z"/>
		<path class="st3" d="M282.3,37.3c1.5,1.7,3.9,2.6,7.2,2.6c1.9,0,3.3-0.4,4.4-1.3c1.2-1,1.8-2.8,1.8-5.3v-1.4c-1,1.7-3,3.1-6.1,3.1
			c-2.4,0-4.5-0.8-6.2-2.5s-2.5-3.8-2.5-6.4s0.9-4.7,2.5-6.4c1.7-1.7,3.7-2.5,6.2-2.5c3.1,0,5.1,1.3,6.1,3.1v-2.5h2.5v14.1
			c0,2.2-0.2,4-0.5,5.2c-0.3,1.3-1.1,2.4-2.3,3.3c-1.6,1.2-3.5,1.8-6,1.8c-3.2,0-5.6-0.7-7.2-2.1v-2.8
			C282.2,37.3,282.3,37.3,282.3,37.3z M294.3,30.7c1.2-1.3,1.8-2.8,1.8-4.7s-0.6-3.4-1.8-4.7c-1.2-1.3-2.7-1.9-4.6-1.9
			c-1.8,0-3.2,0.6-4.4,1.9c-1.2,1.3-1.7,2.8-1.7,4.7s0.6,3.4,1.7,4.7c1.2,1.3,2.7,1.9,4.4,1.9C291.5,32.6,293.1,32,294.3,30.7z"/>
		<path class="st3" d="M302.5,26.2c0-2.7,0.8-4.9,2.4-6.6s3.7-2.5,6.2-2.5c2.3,0,4.2,0.8,5.7,2.4c1.5,1.6,2.2,3.6,2.2,6
			c0,0.4,0,0.7,0,1.1h-13.9c0.1,3.8,2.5,6.3,6.2,6.3c3.1,0,5.2-1.1,6.3-2.4v2.9c-1.7,1.3-3.8,1.9-6.3,1.9c-2.6,0-4.7-0.8-6.3-2.4
			c-1.6-1.6-2.4-3.8-2.4-6.5v-0.2H302.5z M316.2,24.5c0-1.4-0.5-2.5-1.5-3.5s-2.2-1.5-3.7-1.5c-1.6,0-2.9,0.5-4,1.5
			s-1.7,2.1-1.8,3.5H316.2z"/>
	</g>
</g>
<g class="st1">
	<g class="st2">
		<path class="st3" d="M14.4,34.7v-9.2H5.1v9.2H0v-23h5.1v9.1h9.3v-9.1h5.1v23C19.5,34.7,14.4,34.7,14.4,34.7z"/>
	</g>
	<g class="st2">
		<path class="st3" d="M36.3,35.1c-7.1,0-12.2-5.3-12.2-11.8v-0.1c0-6.5,5.2-11.9,12.2-11.9c7.1,0,12.2,5.3,12.2,11.8v0.1
			C48.6,29.7,43.4,35.1,36.3,35.1z M43.3,23.2c0-3.9-2.9-7.2-7-7.2s-6.9,3.2-6.9,7.2v0.1c0,3.9,2.9,7.2,7,7.2
			C40.5,30.4,43.3,27.2,43.3,23.2L43.3,23.2z"/>
	</g>
	<g class="st2">
		<path class="st3" d="M58.4,16.3v4.9h11v4.6h-11v8.9h-5.1v-23h17.5v4.6H58.4z"/>
	</g>
	<g class="st2">
		<path class="st3" d="M93.6,34.7v-15l-6.5,9.8H87l-6.4-9.7v14.9h-5v-23H81l6,9.7l6-9.7h5.4v23C98.4,34.7,93.6,34.7,93.6,34.7z"/>
	</g>
	<g class="st2">
		<path class="st3" d="M121.7,34.7l-2.1-5.2h-9.7l-2.1,5.2h-5.2l9.8-23.1h4.7l9.8,23.1C126.9,34.7,121.7,34.7,121.7,34.7z
			 M114.8,17.6l-3.1,7.4h6.1L114.8,17.6z"/>
	</g>
	<g class="st2">
		<path class="st3" d="M147.3,34.7l-11.1-14.6v14.6h-5v-23h4.7l10.7,14.2V11.7h5v23H147.3z"/>
	</g>
	<g class="st2">
		<path class="st3" d="M173.8,34.7l-11.1-14.6v14.6h-5v-23h4.7l10.8,14.1V11.7h5v23H173.8z"/>
	</g>
	<rect x="189.8" y="23" class="st6" width="11.7" height="11.7"/>
	<rect x="189.8" y="0" class="st6" width="11.7" height="11.7"/>
	<g class="st2">
		<path class="st3" d="M213.1,34.7V11h7.2c1.8,0,3.3,0.6,4.5,1.7c1.2,1.1,1.8,2.6,1.8,4.3c0,2.3-1.1,4-3,4.8
			c3.1,0.6,4.8,2.9,4.8,5.9c0,2-0.7,3.7-2.1,5s-3.1,2-5.1,2H213.1z M215.7,20.9h4.4c2.2,0,3.9-1.6,3.9-3.7s-1.6-3.7-3.8-3.7h-4.5
			L215.7,20.9L215.7,20.9z M215.7,32.3h5.3c2.7,0,4.7-1.9,4.7-4.6c0-1.3-0.4-2.3-1.4-3.2c-0.9-0.8-2-1.3-3.4-1.3h-5.3L215.7,32.3
			L215.7,32.3z"/>
		<path class="st3" d="M247.1,20.1v-2.5h2.5v17.1h-2.5v-2.5c-1,1.7-3,3.1-6.1,3.1c-2.4,0-4.5-0.8-6.2-2.6c-1.7-1.7-2.5-3.9-2.5-6.5
			s0.9-4.7,2.5-6.5c1.7-1.7,3.7-2.6,6.2-2.6C244.1,17.1,246.1,18.4,247.1,20.1z M245.5,31c1.2-1.3,1.8-2.9,1.8-4.8
			c0-1.9-0.6-3.5-1.8-4.8c-1.2-1.3-2.7-1.9-4.6-1.9c-1.8,0-3.2,0.6-4.4,1.9c-1.2,1.3-1.7,2.9-1.7,4.8c0,1.9,0.6,3.5,1.7,4.8
			c1.2,1.3,2.7,1.9,4.4,1.9C242.8,32.9,244.3,32.2,245.5,31z"/>
		<path class="st3" d="M254.2,17.6h2.5v10.3c0,3.2,1.8,4.9,4.7,4.9s4.7-1.7,4.7-5V17.6h2.5v10.3c0,4.6-3,7.3-7.3,7.3
			c-4.2,0-7.1-2.5-7.1-7L254.2,17.6L254.2,17.6z"/>
	</g>
</g>
<g class="st1">
	<g class="st2">
		<path class="st3" d="M14.4,34.7v-9.2H5.1v9.2H0v-23h5.1v9.1h9.3v-9.1h5.1v23H14.4z"/>
	</g>
	<g class="st2">
		<path class="st3" d="M36.3,35.1c-7.1,0-12.2-5.3-12.2-11.8v-0.1c0-6.5,5.2-11.9,12.2-11.9c7.1,0,12.2,5.3,12.2,11.8v0.1
			C48.6,29.7,43.4,35.1,36.3,35.1z M43.3,23.2c0-3.9-2.9-7.2-7-7.2s-6.9,3.2-6.9,7.2l0,0c0,3.9,2.9,7.2,7,7.2S43.3,27.2,43.3,23.2
			L43.3,23.2z"/>
	</g>
	<g class="st2">
		<path class="st3" d="M58.4,16.3v4.9h11v4.6h-11v8.9h-5.1v-23h17.5v4.6H58.4z"/>
	</g>
	<g class="st2">
		<path class="st3" d="M93.6,34.7v-15l-6.5,9.8H87l-6.4-9.7v14.9h-5v-23H81l6,9.7l6-9.7h5.4v23H93.6z"/>
	</g>
	<g class="st2">
		<path class="st3" d="M121.7,34.7l-2.1-5.2h-9.7l-2.1,5.2h-5.2l9.8-23.1h4.7l9.8,23.1H121.7z M114.7,17.6l-3.1,7.4h6.1L114.7,17.6z
			"/>
	</g>
	<g class="st2">
		<path class="st3" d="M147.3,34.7l-11.1-14.6v14.6h-5v-23h4.7l10.8,14.1V11.7h5v23H147.3z"/>
	</g>
	<g class="st2">
		<path class="st3" d="M173.7,34.7l-11.1-14.6v14.6h-5v-23h4.7l10.8,14.1V11.7h5v23H173.7z"/>
	</g>
	<rect x="189.8" y="23" class="st7" width="11.7" height="11.7"/>
	<rect x="189.8" y="0" class="st7" width="11.7" height="11.7"/>
	<g class="st2">
		<path class="st3" d="M231,12.8v3c-2-1.9-4.4-2.8-7.1-2.8c-2.8,0-5.1,1-6.9,2.8s-2.8,4.2-2.8,7s0.9,5.2,2.8,7.1
			c1.8,1.9,4.1,2.8,6.9,2.8c2.5,0,4.7-0.8,6.5-2.4v-6.1h-7.2v-2.4h9.9v9.5c-2.4,2.6-5.4,3.9-9.1,3.9c-3.4,0-6.4-1.2-8.8-3.5
			c-2.4-2.3-3.6-5.3-3.6-8.8s1.2-6.4,3.6-8.8c2.4-2.3,5.3-3.5,8.8-3.5C226.6,10.6,229,11.3,231,12.8z"/>
		<path class="st3" d="M252.1,20.1v-2.5h2.5v17.1h-2.5v-2.5c-1,1.7-3,3.1-6.1,3.1c-2.4,0-4.5-0.8-6.2-2.6c-1.7-1.7-2.5-3.9-2.5-6.5
			s0.9-4.7,2.5-6.5c1.7-1.7,3.7-2.6,6.2-2.6C249.1,17.1,251.1,18.4,252.1,20.1z M250.5,31c1.2-1.3,1.8-2.9,1.8-4.8
			c0-1.9-0.6-3.5-1.8-4.8c-1.2-1.3-2.7-1.9-4.6-1.9c-1.8,0-3.2,0.6-4.4,1.9c-1.2,1.3-1.7,2.9-1.7,4.8c0,1.9,0.6,3.5,1.7,4.8
			c1.2,1.3,2.7,1.9,4.4,1.9C247.8,32.9,249.3,32.2,250.5,31z"/>
		<path class="st3" d="M259.4,34.7V17.6h2.5v2.9c0.9-1.9,2.8-3.2,5.3-3.2c0.4,0,0.7,0,1.1,0.1v2.7c-0.4-0.1-1-0.2-1.7-0.2
			c-2.7,0-4.6,2-4.6,4.8v10H259.4z"/>
		<path class="st3" d="M274,34.7V19.9h-2.2v-2.3h2.2V11h2.5v6.6h3.8v2.3h-3.8v14.8H274z"/>
		<path class="st3" d="M283.5,26.2c0-2.7,0.8-4.9,2.4-6.6s3.7-2.5,6.2-2.5c2.3,0,4.2,0.8,5.7,2.4c1.5,1.6,2.2,3.6,2.2,6
			c0,0.4,0,0.7,0,1.1h-13.9c0.1,3.8,2.5,6.3,6.2,6.3c3.1,0,5.2-1.1,6.3-2.4v2.9c-1.7,1.3-3.8,1.9-6.3,1.9c-2.6,0-4.7-0.8-6.3-2.4
			c-1.6-1.6-2.4-3.8-2.4-6.5v-0.2H283.5z M297.2,24.5c0-1.4-0.5-2.5-1.5-3.5s-2.2-1.5-3.7-1.5c-1.6,0-2.9,0.5-4,1.5
			s-1.7,2.1-1.8,3.5H297.2z"/>
		<path class="st3" d="M304.1,34.7V17.6h2.5v2.9c0.9-1.9,2.9-3.2,5.5-3.2c3.9,0,6.4,2.5,6.4,6.5v10.9H316V24.3
			c0-2.9-1.7-4.7-4.5-4.7c-2.9,0-4.9,2-4.9,4.8v10.2h-2.5V34.7z"/>
		<path class="st3" d="M323.2,34.7V11h2.5v23.7H323.2z"/>
		<path class="st3" d="M329.9,26.2c0-2.7,0.8-4.9,2.4-6.6s3.7-2.5,6.2-2.5c2.3,0,4.2,0.8,5.7,2.4c1.5,1.6,2.2,3.6,2.2,6
			c0,0.4,0,0.7,0,1.1h-13.9c0.1,3.8,2.5,6.3,6.2,6.3c3.1,0,5.2-1.1,6.3-2.4v2.9c-1.7,1.3-3.8,1.9-6.3,1.9c-2.6,0-4.7-0.8-6.3-2.4
			c-1.6-1.6-2.4-3.8-2.4-6.5v-0.2H329.9z M343.7,24.5c0-1.4-0.5-2.5-1.5-3.5s-2.2-1.5-3.7-1.5c-1.6,0-2.9,0.5-4,1.5
			s-1.7,2.1-1.8,3.5H343.7z"/>
		<path class="st3" d="M350.5,34.7V11h2.5v9.1c1-1.7,3-3.1,6.1-3.1c2.4,0,4.5,0.9,6.2,2.6c1.7,1.7,2.5,3.9,2.5,6.5s-0.8,4.8-2.5,6.5
			s-3.7,2.6-6.2,2.6c-3.1,0-5.1-1.3-6.1-3.1v2.5L350.5,34.7L350.5,34.7z M363.5,31c1.2-1.3,1.8-2.9,1.8-4.8c0-1.9-0.6-3.5-1.8-4.8
			c-1.2-1.3-2.6-1.9-4.4-1.9s-3.4,0.6-4.6,1.9c-1.2,1.3-1.8,2.9-1.8,4.8c0,1.9,0.6,3.5,1.8,4.8c1.2,1.3,2.8,1.9,4.6,1.9
			S362.4,32.2,363.5,31z"/>
		<path class="st3" d="M371.2,26.2c0-2.7,0.8-4.9,2.4-6.6s3.7-2.5,6.2-2.5c2.3,0,4.2,0.8,5.7,2.4c1.5,1.6,2.2,3.6,2.2,6
			c0,0.4,0,0.7,0,1.1h-13.9c0.1,3.8,2.5,6.3,6.2,6.3c3.1,0,5.2-1.1,6.3-2.4v2.9c-1.7,1.3-3.8,1.9-6.3,1.9c-2.6,0-4.7-0.8-6.3-2.4
			c-1.6-1.6-2.4-3.8-2.4-6.5v-0.2H371.2z M385,24.5c0-1.4-0.5-2.5-1.5-3.5s-2.2-1.5-3.7-1.5c-1.6,0-2.9,0.5-4,1.5s-1.7,2.1-1.8,3.5
			H385z"/>
		<path class="st3" d="M391.8,34.7V17.6h2.5v2.9c0.9-1.9,2.9-3.2,5.5-3.2c3.9,0,6.4,2.5,6.4,6.5v10.9h-2.5V24.3
			c0-2.9-1.7-4.7-4.5-4.7c-2.9,0-4.9,2-4.9,4.8v10.2h-2.5V34.7z"/>
	</g>
</g>
<g class="st1">
	<g class="st2">
		<path class="st3" d="M14.4,34.7v-9.2H5.1v9.2H0v-23h5.1v9.1h9.3v-9.1h5.1v23H14.4z"/>
	</g>
	<g class="st2">
		<path class="st3" d="M36.3,35.1c-7.1,0-12.2-5.3-12.2-11.8v-0.1c0-6.5,5.2-11.9,12.2-11.9c7.1,0,12.2,5.3,12.2,11.8v0.1
			C48.6,29.8,43.4,35.1,36.3,35.1z M43.3,23.3c0-3.9-2.9-7.2-7-7.2s-6.9,3.2-6.9,7.2v0.1c0,3.9,2.9,7.2,7,7.2
			C40.5,30.5,43.3,27.3,43.3,23.3L43.3,23.3z"/>
	</g>
	<g class="st2">
		<path class="st3" d="M58.4,16.4v4.9h11v4.6h-11v8.8h-5.1v-23h17.6v4.6H58.4V16.4z"/>
	</g>
	<g class="st2">
		<path class="st3" d="M93.6,34.7v-15l-6.5,9.8H87l-6.4-9.7v14.9h-5v-23H81l6,9.7l6-9.7h5.4v23H93.6z"/>
	</g>
	<g class="st2">
		<path class="st3" d="M121.7,34.7l-2.1-5.2h-9.7l-2.1,5.2h-5.2l9.8-23.1h4.7l9.8,23.1H121.7z M114.8,17.7l-3.1,7.4h6.1L114.8,17.7z
			"/>
	</g>
	<g class="st2">
		<path class="st3" d="M147.3,34.7l-11.1-14.6v14.6h-5v-23h4.7l10.8,14.1v-14h5v23L147.3,34.7L147.3,34.7z"/>
	</g>
	<g class="st2">
		<path class="st3" d="M173.8,34.7l-11.1-14.6v14.6h-5v-23h4.7l10.8,14.1v-14h5v23L173.8,34.7L173.8,34.7z"/>
	</g>
	<rect x="189.8" y="23.1" class="st8" width="11.7" height="11.7"/>
	<rect x="189.8" y="0.1" class="st8" width="11.7" height="11.7"/>
	<g class="st2">
		<path class="st3" d="M231,12.9v3c-2-1.9-4.4-2.8-7.1-2.8c-2.8,0-5.1,1-6.9,2.8s-2.8,4.2-2.8,7s0.9,5.2,2.8,7.1
			c1.8,1.9,4.1,2.8,6.9,2.8c2.5,0,4.7-0.8,6.5-2.4v-6.1h-7.2v-2.4h9.9v9.5c-2.4,2.6-5.4,3.9-9.1,3.9c-3.4,0-6.4-1.2-8.8-3.5
			c-2.4-2.3-3.6-5.3-3.6-8.8s1.2-6.4,3.6-8.8c2.4-2.3,5.3-3.5,8.8-3.5C226.6,10.6,229,11.4,231,12.9z"/>
		<path class="st3" d="M237.3,26.3c0-2.7,0.8-4.9,2.4-6.6s3.7-2.5,6.2-2.5c2.3,0,4.2,0.8,5.7,2.4c1.5,1.6,2.2,3.6,2.2,6
			c0,0.4,0,0.7,0,1.1h-13.9c0.1,3.8,2.5,6.3,6.2,6.3c3.1,0,5.2-1.1,6.3-2.4v2.9c-1.7,1.3-3.8,1.9-6.3,1.9c-2.6,0-4.7-0.8-6.3-2.4
			c-1.6-1.6-2.4-3.8-2.4-6.5v-0.2C237.4,26.3,237.3,26.3,237.3,26.3z M251.1,24.5c0-1.4-0.5-2.5-1.5-3.5s-2.2-1.5-3.7-1.5
			c-1.6,0-2.9,0.5-4,1.5s-1.7,2.1-1.8,3.5H251.1z"/>
		<path class="st3" d="M257.2,26.2c0-2.6,0.9-4.7,2.7-6.5c1.8-1.7,3.9-2.6,6.5-2.6s4.7,0.9,6.5,2.6c1.8,1.7,2.7,3.9,2.7,6.5
			s-0.9,4.8-2.7,6.5c-1.8,1.7-3.9,2.6-6.5,2.6s-4.7-0.8-6.5-2.6C258.1,31,257.2,28.8,257.2,26.2z M259.7,26.2c0,1.9,0.6,3.5,1.9,4.8
			s2.8,1.9,4.7,1.9c1.9,0,3.5-0.6,4.7-1.9c1.3-1.3,1.9-2.9,1.9-4.8c0-1.9-0.6-3.5-1.9-4.8s-2.8-1.9-4.7-1.9c-1.9,0-3.5,0.6-4.7,1.9
			C260.3,22.7,259.7,24.3,259.7,26.2z"/>
		<path class="st3" d="M279.5,34.8V17.6h2.5v2.9c0.8-1.9,2.5-3.2,4.8-3.2c2.4,0,4.1,1.1,5,3.4c1.1-2.3,2.9-3.4,5.5-3.4
			c3.5,0,5.7,2.5,5.7,6.5v10.9h-2.5V24.4c0-2.9-1.4-4.7-3.9-4.7c-2.4,0-4.2,2-4.2,4.8v10.2h-2.5V24.4c0-2.9-1.4-4.7-3.8-4.7
			c-2.3,0-4.1,2-4.1,4.8v10.2L279.5,34.8L279.5,34.8z"/>
		<path class="st3" d="M321.8,20.2v-2.5h2.5v17.1h-2.5v-2.5c-1,1.7-3,3.1-6.1,3.1c-2.4,0-4.5-0.8-6.2-2.6c-1.7-1.7-2.5-3.9-2.5-6.5
			s0.9-4.7,2.5-6.5c1.7-1.7,3.7-2.6,6.2-2.6C318.8,17.1,320.9,18.5,321.8,20.2z M320.3,31c1.2-1.3,1.8-2.9,1.8-4.8
			c0-1.9-0.6-3.5-1.8-4.8c-1.2-1.3-2.7-1.9-4.6-1.9c-1.8,0-3.2,0.6-4.4,1.9c-1.2,1.3-1.7,2.9-1.7,4.8c0,1.9,0.6,3.5,1.7,4.8
			c1.2,1.3,2.7,1.9,4.4,1.9C317.6,32.9,319.1,32.3,320.3,31z"/>
		<path class="st3" d="M330.5,34.8V20h-2.2v-2.3h2.2v-6.6h2.5v6.6h3.8V20H333v14.8H330.5z"/>
		<path class="st3" d="M340.8,14.3c-0.7-0.7-0.7-1.8,0-2.4c0.7-0.7,1.7-0.7,2.4,0c0.7,0.6,0.7,1.7,0,2.4
			C342.5,15,341.5,15,340.8,14.3z M340.7,34.8V17.6h2.5v17.1L340.7,34.8L340.7,34.8z"/>
		<path class="st3" d="M348.2,34.8V11.1h2.5v14.1l6.8-7.5h3l-7.3,8.1l8.1,9.1h-3.2l-7.4-8.3v8.3L348.2,34.8L348.2,34.8z"/>
	</g>
</g>
<g>
	<g>
		<path class="st3" d="M14.4,34.7v-9.2H5.1v9.2H0v-23h5.1v9.1h9.3v-9.1h5.1v23H14.4z"/>
	</g>
	<g>
		<path class="st3" d="M36.3,35.1c-7.1,0-12.2-5.3-12.2-11.8v-0.1c0-6.5,5.2-11.9,12.2-11.9c7.1,0,12.2,5.3,12.2,11.8v0.1
			C48.6,29.8,43.4,35.1,36.3,35.1z M43.3,23.2c0-3.9-2.9-7.2-7-7.2s-6.9,3.2-6.9,7.2v0.1c0,3.9,2.9,7.2,7,7.2
			C40.5,30.4,43.3,27.2,43.3,23.2L43.3,23.2z"/>
	</g>
	<g>
		<path class="st3" d="M58.4,16.3v4.9h11v4.6h-11v8.9h-5.1v-23h17.5v4.6H58.4z"/>
	</g>
	<g>
		<path class="st3" d="M93.6,34.7v-15l-6.5,9.8H87l-6.4-9.7v14.9h-5v-23H81l6,9.7l6-9.7h5.4v23H93.6z"/>
	</g>
	<g>
		<path class="st3" d="M121.7,34.7l-2.1-5.2h-9.7l-2.1,5.2h-5.2l9.8-23.1h4.7l9.8,23.1H121.7z M114.8,17.7l-3.1,7.4h6.1L114.8,17.7z
			"/>
	</g>
	<g>
		<path class="st3" d="M147.3,34.7l-11.1-14.6v14.6h-5v-23h4.7l10.8,14.1V11.7h5v23H147.3z"/>
	</g>
	<g>
		<path class="st3" d="M173.8,34.7l-11.1-14.6v14.6h-5v-23h4.7l10.7,14.2V11.7h5v23H173.8z"/>
	</g>
	<rect x="189.7" y="23" class="st9" width="11.7" height="11.7"/>
	<rect x="189.7" y="0" class="st9" width="11.7" height="11.7"/>
	<g>
		<path class="st3" d="M231,12.8v3c-2-1.9-4.4-2.8-7.1-2.8c-2.8,0-5.1,1-6.9,2.8s-2.8,4.2-2.8,7s0.9,5.2,2.8,7.1
			c1.8,1.9,4.1,2.8,6.9,2.8c2.5,0,4.7-0.8,6.5-2.4v-6.1h-7.2v-2.4h9.9v9.5c-2.4,2.6-5.4,3.9-9.1,3.9c-3.4,0-6.4-1.2-8.8-3.5
			c-2.4-2.3-3.6-5.3-3.6-8.8s1.2-6.4,3.6-8.8c2.4-2.3,5.3-3.5,8.8-3.5C226.7,10.6,229,11.4,231,12.8z"/>
		<path class="st3" d="M238.1,34.7V17.6h2.5v2.9c0.9-1.9,2.8-3.2,5.3-3.2c0.4,0,0.7,0,1.1,0.1v2.7c-0.4-0.1-1-0.2-1.7-0.2
			c-2.7,0-4.6,2-4.6,4.8v10H238.1z"/>
		<path class="st3" d="M251.2,17.6h2.5v10.3c0,3.2,1.8,4.9,4.7,4.9s4.7-1.7,4.7-5V17.6h2.5v10.3c0,4.6-3,7.3-7.3,7.3
			c-4.2,0-7.1-2.5-7.1-7L251.2,17.6L251.2,17.6z"/>
		<path class="st3" d="M270.2,41.3V17.6h2.5v2.5c1-1.7,3-3.1,6.1-3.1c2.4,0,4.5,0.9,6.2,2.6c1.7,1.7,2.5,3.9,2.5,6.5
			s-0.8,4.8-2.5,6.5c-1.7,1.7-3.7,2.6-6.2,2.6c-3.1,0-5.1-1.3-6.1-3.1v9.1L270.2,41.3L270.2,41.3z M283.2,31
			c1.2-1.3,1.8-2.9,1.8-4.8c0-1.9-0.6-3.5-1.8-4.8c-1.2-1.3-2.6-1.9-4.4-1.9s-3.4,0.6-4.6,1.9c-1.2,1.3-1.8,2.9-1.8,4.8
			c0,1.9,0.6,3.5,1.8,4.8c1.2,1.3,2.8,1.9,4.6,1.9C280.6,32.9,282.1,32.3,283.2,31z"/>
		<path class="st3" d="M291.7,41.3V17.6h2.5v2.5c1-1.7,3-3.1,6.1-3.1c2.4,0,4.5,0.9,6.2,2.6c1.7,1.7,2.5,3.9,2.5,6.5
			s-0.8,4.8-2.5,6.5c-1.7,1.7-3.7,2.6-6.2,2.6c-3.1,0-5.1-1.3-6.1-3.1v9.1L291.7,41.3L291.7,41.3z M304.6,31
			c1.2-1.3,1.8-2.9,1.8-4.8c0-1.9-0.6-3.5-1.8-4.8c-1.2-1.3-2.6-1.9-4.4-1.9s-3.4,0.6-4.6,1.9c-1.2,1.3-1.8,2.9-1.8,4.8
			c0,1.9,0.6,3.5,1.8,4.8c1.2,1.3,2.8,1.9,4.6,1.9C302,32.9,303.5,32.3,304.6,31z"/>
		<path class="st3" d="M312.3,26.2c0-2.7,0.8-4.9,2.4-6.6s3.7-2.5,6.2-2.5c2.3,0,4.2,0.8,5.7,2.4c1.5,1.6,2.2,3.6,2.2,6
			c0,0.4,0,0.7,0,1.1h-13.9c0.1,3.8,2.5,6.3,6.2,6.3c3.1,0,5.2-1.1,6.3-2.4v2.9c-1.7,1.3-3.8,1.9-6.3,1.9c-2.6,0-4.7-0.8-6.3-2.4
			c-1.6-1.6-2.4-3.8-2.4-6.5v-0.2C312.4,26.2,312.3,26.2,312.3,26.2z M326.1,24.5c0-1.4-0.5-2.5-1.5-3.5s-2.2-1.5-3.7-1.5
			c-1.6,0-2.9,0.5-4,1.5s-1.7,2.1-1.8,3.5H326.1z"/>
	</g>
</g>
<g class="st1">
	<g class="st2">
		<path class="st3" d="M14.4,34.7v-9.2H5.1v9.2H0v-23h5.1v9.1h9.3v-9.1h5.1v23H14.4z"/>
	</g>
	<g class="st2">
		<path class="st3" d="M36.3,35.1c-7.1,0-12.2-5.3-12.2-11.8v-0.1c0-6.5,5.2-11.9,12.2-11.9c7.1,0,12.2,5.3,12.2,11.8v0.1
			C48.6,29.8,43.4,35.1,36.3,35.1z M43.3,23.2c0-3.9-2.9-7.2-7-7.2s-6.9,3.2-6.9,7.2v0.1c0,3.9,2.9,7.2,7,7.2S43.3,27.2,43.3,23.2
			L43.3,23.2z"/>
	</g>
	<g class="st2">
		<path class="st3" d="M58.4,16.3v4.9h11v4.6h-11v8.9h-5.1v-23h17.6v4.6H58.4z"/>
	</g>
	<g class="st2">
		<path class="st3" d="M93.6,34.7v-15l-6.5,9.8H87l-6.4-9.7v14.9h-5v-23H81l6,9.7l6-9.7h5.4v23H93.6z"/>
	</g>
	<g class="st2">
		<path class="st3" d="M121.7,34.7l-2.1-5.2h-9.7l-2.1,5.2h-5.2l9.8-23.1h4.7l9.8,23.1H121.7z M114.8,17.7l-3.1,7.4h6.1L114.8,17.7z
			"/>
	</g>
	<g class="st2">
		<path class="st3" d="M147.3,34.7l-11.1-14.6v14.6h-5v-23h4.7l10.8,14.1v-14h5v23L147.3,34.7L147.3,34.7z"/>
	</g>
	<g class="st2">
		<path class="st3" d="M173.8,34.7l-11.1-14.6v14.6h-5v-23h4.7l10.8,14.1v-14h5v23L173.8,34.7L173.8,34.7z"/>
	</g>
	<rect x="189.8" y="23.1" class="st2" width="11.7" height="11.7"/>
	<rect x="189.8" y="0.1" class="st2" width="11.7" height="11.7"/>
	<g class="st2">
		<path class="st3" d="M211.1,34.7l10.8-24.5l10.7,24.5h-2.9l-2.5-5.8h-10.7l-2.5,5.8H211.1z M217.5,26.5h8.6l-4.3-10.1L217.5,26.5z
			"/>
		<path class="st3" d="M236.7,34.7V17.6h2.5v2.9c0.9-1.9,2.8-3.2,5.3-3.2c0.4,0,0.7,0,1.1,0.1v2.7c-0.4-0.1-1-0.2-1.7-0.2
			c-2.7,0-4.6,2-4.6,4.8v10C239.3,34.7,236.7,34.7,236.7,34.7z"/>
		<path class="st3" d="M264.2,19v2.9c-1.6-1.7-3.5-2.5-5.7-2.5c-1.9,0-3.5,0.6-4.7,1.9c-1.3,1.3-1.9,2.9-1.9,4.8
			c0,1.9,0.6,3.5,1.9,4.8s2.8,1.9,4.7,1.9c2.2,0,4.1-0.8,5.7-2.5v3c-1.5,1.3-3.4,1.9-5.7,1.9c-2.5,0-4.7-0.8-6.5-2.6
			c-1.8-1.7-2.7-3.9-2.7-6.5s0.9-4.7,2.7-6.5c1.8-1.7,3.9-2.6,6.5-2.6C260.7,17.1,262.6,17.7,264.2,19z"/>
		<path class="st3" d="M268.3,34.7V11.1h2.5v9.5c0.9-1.9,2.8-3.2,5.3-3.2c3.8,0,6.2,2.5,6.2,6.5v10.9h-2.5V24.3
			c0-2.9-1.6-4.7-4.2-4.7c-2.7,0-4.7,2-4.7,4.8v10.2h-2.6L268.3,34.7L268.3,34.7z"/>
		<path class="st3" d="M287.2,14.3c-0.7-0.7-0.7-1.8,0-2.4c0.7-0.7,1.7-0.7,2.4,0c0.7,0.6,0.7,1.7,0,2.4
			C288.9,14.9,287.9,14.9,287.2,14.3z M287.2,34.7V17.6h2.5v17.1H287.2z"/>
		<path class="st3" d="M295.9,34.7V20h-2.2v-2.3h2.2v-6.6h2.5v6.6h3.8V20h-3.8v14.8L295.9,34.7L295.9,34.7z"/>
		<path class="st3" d="M305.4,26.2c0-2.7,0.8-4.9,2.4-6.6s3.7-2.5,6.2-2.5c2.3,0,4.2,0.8,5.7,2.4c1.5,1.6,2.2,3.6,2.2,6
			c0,0.4,0,0.7,0,1.1h-14c0.1,3.8,2.5,6.3,6.2,6.3c3.1,0,5.2-1.1,6.3-2.4v2.9c-1.7,1.3-3.8,1.9-6.3,1.9c-2.6,0-4.7-0.8-6.3-2.4
			c-1.6-1.6-2.4-3.8-2.4-6.5L305.4,26.2L305.4,26.2z M319.1,24.5c0-1.4-0.5-2.5-1.5-3.5s-2.2-1.5-3.7-1.5c-1.6,0-2.9,0.5-4,1.5
			s-1.7,2.1-1.8,3.5H319.1z"/>
		<path class="st3" d="M326,34.7V11.1h2.5v14.1l6.8-7.5h3l-7.3,8.1l8.1,9.1h-3.2l-7.4-8.3v8.3H326V34.7z"/>
		<path class="st3" d="M343.5,34.7V20h-2.2v-2.3h2.2v-6.6h2.5v6.6h3.8V20H346v14.8L343.5,34.7L343.5,34.7z"/>
		<path class="st3" d="M353.5,17.6h2.5v10.3c0,3.2,1.8,4.9,4.7,4.9s4.7-1.7,4.7-5V17.6h2.5v10.3c0,4.6-3,7.3-7.3,7.3
			c-4.2,0-7.1-2.5-7.1-7L353.5,17.6L353.5,17.6z"/>
		<path class="st3" d="M372.6,34.7V17.6h2.5v2.9c0.9-1.9,2.8-3.2,5.3-3.2c0.4,0,0.7,0,1.1,0.1v2.7c-0.4-0.1-1-0.2-1.7-0.2
			c-2.7,0-4.6,2-4.6,4.8v10C375.2,34.7,372.6,34.7,372.6,34.7z"/>
	</g>
</g>
<g class="st1">
	<g class="st2">
		<path class="st3" d="M14.4,34.7v-9.2H5.1v9.2H0v-23h5.1v9.1h9.3v-9.1h5.1v23C19.5,34.7,14.4,34.7,14.4,34.7z"/>
	</g>
	<g class="st2">
		<path class="st3" d="M36.3,35.1c-7.1,0-12.2-5.3-12.2-11.8v-0.1c0-6.5,5.2-11.9,12.2-11.9c7.1,0,12.2,5.3,12.2,11.8v0.1
			C48.6,29.7,43.4,35.1,36.3,35.1z M43.3,23.2c0-3.9-2.9-7.2-7-7.2s-6.9,3.2-6.9,7.2v0.1c0,3.9,2.9,7.2,7,7.2
			C40.5,30.4,43.3,27.2,43.3,23.2L43.3,23.2z"/>
	</g>
	<g class="st2">
		<path class="st3" d="M58.4,16.3v4.9h11v4.6h-11v8.9h-5.1v-23h17.5v4.6H58.4z"/>
	</g>
	<g class="st2">
		<path class="st3" d="M93.6,34.7v-15l-6.5,9.8H87l-6.4-9.7v14.9h-5v-23H81l6,9.7l6-9.7h5.4v23C98.4,34.7,93.6,34.7,93.6,34.7z"/>
	</g>
	<g class="st2">
		<path class="st3" d="M121.7,34.7l-2.1-5.2h-9.7l-2.1,5.2h-5.2l9.8-23.1h4.7l9.8,23.1C126.9,34.7,121.7,34.7,121.7,34.7z
			 M114.8,17.6l-3.1,7.4h6.1L114.8,17.6z"/>
	</g>
	<g class="st2">
		<path class="st3" d="M147.3,34.7l-11.1-14.6v14.6h-5v-23h4.7l10.8,14.1V11.7h5v23H147.3z"/>
	</g>
	<g class="st2">
		<path class="st3" d="M173.8,34.7l-11.1-14.6v14.6h-5v-23h4.7l10.8,14.1V11.7h5v23H173.8z"/>
	</g>
	<rect x="189.8" y="23" class="st10" width="11.7" height="11.7"/>
	<rect x="189.8" class="st10" width="11.7" height="11.7"/>
	<g class="st2">
		<path class="st3" d="M218.6,35.5L210.8,11h2.8l5.3,16.7l7.2-17.5l6.9,17.5l5.4-16.7h2.8l-7.9,24.6l-7.2-18.3L218.6,35.5z"/>
		<path class="st3" d="M259.1,20.1v-2.5h2.5v17.1h-2.5v-2.5c-1,1.7-3,3.1-6.1,3.1c-2.4,0-4.5-0.8-6.2-2.6c-1.7-1.7-2.5-3.9-2.5-6.5
			s0.9-4.7,2.5-6.5c1.7-1.7,3.7-2.6,6.2-2.6C256.1,17,258.1,18.4,259.1,20.1z M257.6,31c1.2-1.3,1.8-2.9,1.8-4.8
			c0-1.9-0.6-3.5-1.8-4.8c-1.2-1.3-2.7-1.9-4.6-1.9c-1.8,0-3.2,0.6-4.4,1.9c-1.2,1.3-1.7,2.9-1.7,4.8c0,1.9,0.6,3.5,1.7,4.8
			c1.2,1.3,2.7,1.9,4.4,1.9C254.9,32.9,256.4,32.2,257.6,31z"/>
		<path class="st3" d="M265.5,30.1c1.6,1.8,3.5,2.7,5.9,2.7c2.2,0,3.5-1,3.5-2.4c0-0.9-0.2-1.5-1.1-2.2c-0.4-0.3-0.8-0.6-1.1-0.7
			l-1.7-0.9c-1.7-0.8-2.4-1.2-3.3-2c-1-0.8-1.3-1.8-1.3-3.1s0.5-2.4,1.4-3.2c1-0.8,2.2-1.2,3.9-1.2s2.9,0.4,3.9,1.1v2.6
			c-1.1-0.9-2.3-1.3-3.7-1.3c-2,0-3,0.7-3,2.1c0,1.1,0.6,1.6,2.1,2.4l1.6,0.8c0.7,0.4,1.3,0.7,1.6,0.8c0.3,0.2,0.7,0.5,1.3,0.9
			c0.5,0.4,0.9,0.7,1.2,1.1c0.4,0.6,0.9,1.7,0.9,2.9c0,1.1-0.5,2.1-1.5,3.2c-1,1-2.4,1.5-4.5,1.5c-2.5,0-4.5-0.7-5.9-2.1v-3
			C265.7,30.1,265.5,30.1,265.5,30.1z"/>
		<path class="st3" d="M280.2,30.1c1.6,1.8,3.5,2.7,5.9,2.7c2.2,0,3.5-1,3.5-2.4c0-0.9-0.2-1.5-1.1-2.2c-0.4-0.3-0.8-0.6-1.1-0.7
			l-1.7-0.9c-1.7-0.8-2.4-1.2-3.3-2c-1-0.8-1.3-1.8-1.3-3.1s0.5-2.4,1.4-3.2c1-0.8,2.2-1.2,3.9-1.2s2.9,0.4,3.9,1.1v2.6
			c-1.1-0.9-2.3-1.3-3.7-1.3c-2,0-3,0.7-3,2.1c0,1.1,0.6,1.6,2.1,2.4l1.6,0.8c0.7,0.4,1.3,0.7,1.6,0.8c0.3,0.2,0.7,0.5,1.3,0.9
			c0.5,0.4,0.9,0.7,1.2,1.1c0.4,0.6,0.9,1.7,0.9,2.9c0,1.1-0.5,2.1-1.5,3.2c-1,1-2.4,1.5-4.5,1.5c-2.5,0-4.5-0.7-5.9-2.1v-3
			C280.4,30.1,280.2,30.1,280.2,30.1z"/>
		<path class="st3" d="M295,26.2c0-2.7,0.8-4.9,2.4-6.6s3.7-2.5,6.2-2.5c2.3,0,4.2,0.8,5.7,2.4c1.5,1.6,2.2,3.6,2.2,6
			c0,0.4,0,0.7,0,1.1h-13.9c0.1,3.8,2.5,6.3,6.2,6.3c3.1,0,5.2-1.1,6.3-2.4v2.9c-1.7,1.3-3.8,1.9-6.3,1.9c-2.6,0-4.7-0.8-6.3-2.4
			c-1.6-1.6-2.4-3.8-2.4-6.5v-0.2H295z M308.8,24.5c0-1.4-0.5-2.5-1.5-3.5s-2.2-1.5-3.7-1.5c-1.6,0-2.9,0.5-4,1.5s-1.7,2.1-1.8,3.5
			H308.8z"/>
		<path class="st3" d="M315.6,34.7V17.6h2.5v2.9c0.9-1.9,2.8-3.2,5.3-3.2c0.4,0,0.7,0,1.1,0.1v2.7c-0.4-0.1-1-0.2-1.7-0.2
			c-2.7,0-4.6,2-4.6,4.8v10H315.6z"/>
	</g>
</g>
<g class="st1">
	<g class="st2">
		<path class="st3" d="M14.4,34.7v-9.2H5.1v9.2H0v-23h5.1v9.1h9.3v-9.1h5.1v23H14.4z"/>
	</g>
	<g class="st2">
		<path class="st3" d="M36.3,35.1c-7.1,0-12.2-5.3-12.2-11.8v-0.1c0-6.5,5.2-11.9,12.2-11.9c7.1,0,12.2,5.3,12.2,11.8v0.1
			C48.6,29.8,43.4,35.1,36.3,35.1z M43.3,23.2c0-3.9-2.9-7.2-7-7.2s-6.9,3.2-6.9,7.2v0.1c0,3.9,2.9,7.2,7,7.2S43.3,27.2,43.3,23.2
			L43.3,23.2z"/>
	</g>
	<g class="st2">
		<path class="st3" d="M58.4,16.3v4.9h11v4.6h-11v8.9h-5.1v-23h17.5v4.6H58.4z"/>
	</g>
	<g class="st2">
		<path class="st3" d="M93.6,34.7v-15l-6.5,9.8H87l-6.4-9.7v14.9h-5v-23H81l6,9.7l6-9.7h5.4v23H93.6z"/>
	</g>
	<g class="st2">
		<path class="st3" d="M121.7,34.7l-2.1-5.2h-9.7l-2.1,5.2h-5.2l9.8-23.1h4.7l9.8,23.1H121.7z M114.7,17.7l-3.1,7.4h6.1L114.7,17.7z
			"/>
	</g>
	<g class="st2">
		<path class="st3" d="M147.3,34.7l-11.1-14.6v14.6h-5v-23h4.7l10.7,14.2V11.8h5v23L147.3,34.7L147.3,34.7z"/>
	</g>
	<g class="st2">
		<path class="st3" d="M173.8,34.7l-11.1-14.6v14.6h-5v-23h4.7l10.7,14.2V11.8h5v23L173.8,34.7L173.8,34.7z"/>
	</g>
	<rect x="189.8" y="23.1" class="st11" width="11.7" height="11.7"/>
	<rect x="189.8" y="0.1" class="st11" width="11.7" height="11.7"/>
	<g class="st2">
		<path class="st3" d="M231,12.9v3c-2-1.9-4.4-2.8-7.1-2.8c-2.8,0-5.1,1-6.9,2.8s-2.8,4.2-2.8,7s0.9,5.2,2.8,7.1
			c1.8,1.9,4.1,2.8,6.9,2.8c2.5,0,4.7-0.8,6.5-2.4v-6.1h-7.2v-2.4h9.9v9.5c-2.4,2.6-5.4,3.9-9.1,3.9c-3.4,0-6.4-1.2-8.8-3.5
			c-2.4-2.3-3.6-5.3-3.6-8.8s1.2-6.4,3.6-8.8c2.4-2.3,5.3-3.5,8.8-3.5C226.6,10.6,229,11.4,231,12.9z"/>
		<path class="st3" d="M238.1,34.8V17.6h2.5v2.9c0.9-1.9,2.8-3.2,5.3-3.2c0.4,0,0.7,0,1.1,0.1v2.7c-0.4-0.1-1-0.2-1.7-0.2
			c-2.7,0-4.6,2-4.6,4.8v10L238.1,34.8L238.1,34.8z"/>
		<path class="st3" d="M251.2,17.6h2.5v10.3c0,3.2,1.8,4.9,4.7,4.9s4.7-1.7,4.7-5V17.6h2.5v10.3c0,4.6-3,7.3-7.3,7.3
			c-4.2,0-7.1-2.5-7.1-7L251.2,17.6L251.2,17.6z M253.7,14.4c-0.7-0.7-0.7-1.8,0-2.4c0.7-0.7,1.7-0.7,2.4,0c0.7,0.6,0.7,1.7,0,2.4
			C255.4,15,254.3,15,253.7,14.4z M260.7,14.4c-0.7-0.7-0.7-1.8,0-2.4c0.7-0.7,1.7-0.7,2.4,0c0.7,0.6,0.7,1.7,0,2.4
			C262.4,15,261.3,15,260.7,14.4z"/>
		<path class="st3" d="M270.2,34.8V17.6h2.5v2.9c0.9-1.9,2.9-3.2,5.5-3.2c3.9,0,6.4,2.5,6.4,6.5v10.9h-2.5V24.3
			c0-2.9-1.7-4.7-4.5-4.7c-2.9,0-4.9,2-4.9,4.8v10.2h-2.5V34.8z"/>
		<path class="st3" d="M303.3,20.2v-9.1h2.5v23.7h-2.5v-2.5c-1,1.7-3,3.1-6.1,3.1c-2.4,0-4.5-0.8-6.2-2.6c-1.7-1.7-2.5-3.9-2.5-6.5
			s0.9-4.7,2.5-6.5c1.7-1.7,3.7-2.6,6.2-2.6C300.3,17.1,302.4,18.4,303.3,20.2z M301.8,31c1.2-1.3,1.8-2.9,1.8-4.8
			c0-1.9-0.6-3.5-1.8-4.8c-1.2-1.3-2.7-1.9-4.6-1.9c-1.8,0-3.2,0.6-4.4,1.9c-1.2,1.3-1.7,2.9-1.7,4.8c0,1.9,0.6,3.5,1.7,4.8
			c1.2,1.3,2.7,1.9,4.4,1.9C299.1,32.9,300.6,32.3,301.8,31z"/>
		<path class="st3" d="M324.8,20.2v-2.5h2.5v17.1h-2.5v-2.5c-1,1.7-3,3.1-6.1,3.1c-2.4,0-4.5-0.8-6.2-2.6c-1.7-1.7-2.5-3.9-2.5-6.5
			s0.9-4.7,2.5-6.5c1.7-1.7,3.7-2.6,6.2-2.6C321.8,17.1,323.8,18.4,324.8,20.2z M323.2,31c1.2-1.3,1.8-2.9,1.8-4.8
			c0-1.9-0.6-3.5-1.8-4.8c-1.2-1.3-2.7-1.9-4.6-1.9c-1.8,0-3.2,0.6-4.4,1.9c-1.2,1.3-1.7,2.9-1.7,4.8c0,1.9,0.6,3.5,1.7,4.8
			c1.2,1.3,2.7,1.9,4.4,1.9C320.5,32.9,322,32.3,323.2,31z"/>
		<path class="st3" d="M346.2,19v2.9c-1.6-1.7-3.5-2.5-5.7-2.5c-1.9,0-3.5,0.6-4.7,1.9c-1.3,1.3-1.9,2.9-1.9,4.8
			c0,1.9,0.6,3.5,1.9,4.8c1.3,1.3,2.8,1.9,4.7,1.9c2.2,0,4.1-0.8,5.7-2.5v2.9c-1.5,1.3-3.4,1.9-5.7,1.9c-2.5,0-4.7-0.8-6.5-2.6
			c-1.8-1.7-2.7-3.9-2.7-6.5s0.9-4.7,2.7-6.5c1.8-1.7,3.9-2.6,6.5-2.6C342.8,17.1,344.7,17.8,346.2,19z"/>
		<path class="st3" d="M350.4,34.8V11.1h2.5v9.5c0.9-1.9,2.8-3.2,5.3-3.2c3.8,0,6.2,2.5,6.2,6.5v10.9h-2.5V24.3
			c0-2.9-1.6-4.7-4.2-4.7c-2.7,0-4.7,2-4.7,4.8v10.2h-2.6L350.4,34.8L350.4,34.8z"/>
	</g>
</g>
<g class="st1">
	<g class="st2">
		<path class="st3" d="M14.4,34.7v-9.2H5.1v9.2H0v-23h5.1v9.1h9.3v-9.1h5.1v23C19.5,34.7,14.4,34.7,14.4,34.7z"/>
	</g>
	<g class="st2">
		<path class="st3" d="M36.4,35.1c-7.1,0-12.2-5.3-12.2-11.8v-0.1c0-6.5,5.2-11.9,12.2-11.9c7.1,0,12.2,5.3,12.2,11.8v0.1
			C48.6,29.7,43.5,35.1,36.4,35.1z M43.3,23.2c0-3.9-2.9-7.2-7-7.2s-6.9,3.2-6.9,7.2v0.1c0,3.9,2.9,7.2,7,7.2
			C40.5,30.4,43.3,27.2,43.3,23.2L43.3,23.2z"/>
	</g>
	<g class="st2">
		<path class="st3" d="M58.5,16.3v4.9h11v4.6h-11v8.9h-5.1v-23h17.5v4.6H58.5z"/>
	</g>
	<g class="st2">
		<path class="st3" d="M93.6,34.7v-15l-6.5,9.8H87l-6.4-9.7v14.9h-5v-23H81l6,9.7l6-9.7h5.4v23C98.4,34.7,93.6,34.7,93.6,34.7z"/>
	</g>
	<g class="st2">
		<path class="st3" d="M121.7,34.7l-2.1-5.2h-9.7l-2.1,5.2h-5.2l9.8-23.1h4.7l9.8,23.1C126.9,34.7,121.7,34.7,121.7,34.7z
			 M114.8,17.6l-3.1,7.4h6.1L114.8,17.6z"/>
	</g>
	<g class="st2">
		<path class="st3" d="M147.3,34.7l-11.1-14.6v14.6h-5v-23h4.7l10.8,14.1V11.7h5v23H147.3z"/>
	</g>
	<g class="st2">
		<path class="st3" d="M173.8,34.7l-11.1-14.6v14.6h-5v-23h4.7l10.8,14.1V11.7h5v23H173.8z"/>
	</g>
	<rect x="189.8" y="23" class="st4" width="11.7" height="11.7"/>
	<rect x="189.8" y="0" class="st4" width="11.7" height="11.7"/>
	<g class="st2">
		<path class="st3" d="M231,12.8v3c-2-1.9-4.4-2.8-7.1-2.8c-2.8,0-5.1,1-6.9,2.8s-2.8,4.2-2.8,7s0.9,5.2,2.8,7.1
			c1.8,1.9,4.1,2.8,6.9,2.8c2.5,0,4.7-0.8,6.5-2.4v-6.1h-7.2v-2.4h9.9v9.5c-2.4,2.6-5.4,3.9-9.1,3.9c-3.4,0-6.4-1.2-8.8-3.5
			c-2.4-2.3-3.6-5.3-3.6-8.8s1.2-6.4,3.6-8.8c2.4-2.3,5.3-3.5,8.8-3.5C226.7,10.6,229.1,11.3,231,12.8z"/>
		<path class="st3" d="M252.1,20.1v-2.5h2.5v17.1h-2.5v-2.5c-1,1.7-3,3.1-6.1,3.1c-2.4,0-4.5-0.8-6.2-2.6c-1.7-1.7-2.5-3.9-2.5-6.5
			s0.9-4.7,2.5-6.5c1.7-1.7,3.7-2.6,6.2-2.6C249.1,17.1,251.1,18.4,252.1,20.1z M250.6,31c1.2-1.3,1.8-2.9,1.8-4.8
			c0-1.9-0.6-3.5-1.8-4.8c-1.2-1.3-2.7-1.9-4.6-1.9c-1.8,0-3.2,0.6-4.4,1.9c-1.2,1.3-1.7,2.9-1.7,4.8c0,1.9,0.6,3.5,1.7,4.8
			c1.2,1.3,2.7,1.9,4.4,1.9C247.9,32.9,249.4,32.2,250.6,31z"/>
		<path class="st3" d="M259.5,34.7V17.6h2.5v2.9c0.9-1.9,2.8-3.2,5.3-3.2c0.4,0,0.7,0,1.1,0.1v2.7c-0.4-0.1-1-0.2-1.7-0.2
			c-2.7,0-4.6,2-4.6,4.8v10H259.5z"/>
		<path class="st3" d="M274,34.7V19.9h-2.1v-2.3h2.2V11h2.5v6.6h3.8v2.3h-3.8v14.8H274z"/>
		<path class="st3" d="M282.9,26.2c0-2.7,0.8-4.9,2.4-6.6s3.7-2.5,6.2-2.5c2.3,0,4.2,0.8,5.7,2.4c1.5,1.6,2.2,3.6,2.2,6
			c0,0.4,0,0.7,0,1.1h-13.9c0.1,3.8,2.5,6.3,6.2,6.3c3.1,0,5.2-1.1,6.3-2.4v2.9c-1.7,1.3-3.8,1.9-6.3,1.9c-2.6,0-4.7-0.8-6.3-2.4
			c-1.6-1.6-2.4-3.8-2.4-6.5v-0.2H282.9z M296.7,24.5c0-1.4-0.5-2.5-1.5-3.5s-2.2-1.5-3.7-1.5c-1.6,0-2.9,0.5-4,1.5
			s-1.7,2.1-1.8,3.5H296.7z"/>
		<path class="st3" d="M303.5,34.7V17.6h2.5v2.9c0.9-1.9,2.9-3.2,5.5-3.2c3.9,0,6.4,2.5,6.4,6.5v10.9h-2.5V24.3
			c0-2.9-1.7-4.7-4.5-4.7c-2.9,0-4.9,2-4.9,4.8v10.2L303.5,34.7L303.5,34.7z"/>
		<path class="st3" d="M322.6,34.7V11h2.5v9.1c1-1.7,3-3.1,6.1-3.1c2.4,0,4.5,0.9,6.2,2.6c1.7,1.7,2.5,3.9,2.5,6.5s-0.8,4.8-2.5,6.5
			c-1.7,1.7-3.7,2.6-6.2,2.6c-3.1,0-5.1-1.3-6.1-3.1v2.5h-2.5V34.7z M335.6,31c1.2-1.3,1.8-2.9,1.8-4.8c0-1.9-0.6-3.5-1.8-4.8
			c-1.2-1.3-2.6-1.9-4.4-1.9s-3.4,0.6-4.6,1.9c-1.2,1.3-1.8,2.9-1.8,4.8c0,1.9,0.6,3.5,1.8,4.8c1.2,1.3,2.8,1.9,4.6,1.9
			C333,32.9,334.5,32.2,335.6,31z"/>
		<path class="st3" d="M358.1,20.1v-2.5h2.5v17.1h-2.5v-2.5c-1,1.7-3,3.1-6.1,3.1c-2.4,0-4.5-0.8-6.2-2.6c-1.7-1.7-2.5-3.9-2.5-6.5
			s0.9-4.7,2.5-6.5c1.7-1.7,3.7-2.6,6.2-2.6C355.1,17.1,357.1,18.4,358.1,20.1z M356.5,31c1.2-1.3,1.8-2.9,1.8-4.8
			c0-1.9-0.6-3.5-1.8-4.8c-1.2-1.3-2.7-1.9-4.6-1.9c-1.8,0-3.2,0.6-4.4,1.9c-1.2,1.3-1.7,2.9-1.7,4.8c0,1.9,0.6,3.5,1.7,4.8
			c1.2,1.3,2.7,1.9,4.4,1.9C353.8,32.9,355.3,32.2,356.5,31z"/>
		<path class="st3" d="M365.2,17.6h2.5v10.3c0,3.2,1.8,4.9,4.7,4.9s4.7-1.7,4.7-5V17.6h2.5v10.3c0,4.6-3,7.3-7.3,7.3
			c-4.2,0-7.1-2.5-7.1-7L365.2,17.6L365.2,17.6z"/>
	</g>
</g>
</svg>
