<svg xmlns="http://www.w3.org/2000/svg" xmlns:xlink="http://www.w3.org/1999/xlink" width="125.587" height="18" viewBox="0 0 125.587 18"><defs><clipPath id="a"><rect width="125.587" height="18" fill="none"/></clipPath></defs><g transform="translate(0 0)"><rect width="7.182" height="16.896" transform="translate(0 0.548)" fill="#ffc900"/><rect width="7.182" height="16.896" transform="translate(9.249 0.548)" fill="#3a3939"/><rect width="7.182" height="16.896" transform="translate(18.498 0.548)" fill="#ffc900"/><g transform="translate(0 0)"><g clip-path="url(#a)"><path d="M131.408,4.276h3.18V.56H124.383V4.276h3.179V17.441h3.846ZM120.962.56h-3.846V17.441h8.458V13.725h-4.612ZM107.245,4.253a4.419,4.419,0,0,1,4.179,4.455c0,2.912-1.884,5.039-4.179,5.039s-4.182-2.127-4.182-5.039a4.42,4.42,0,0,1,4.182-4.455m0-4.253a8.417,8.417,0,0,0-8.184,8.686c0,5.463,3.433,9.314,8.184,9.314s8.182-3.851,8.182-9.314A8.417,8.417,0,0,0,107.245,0M89.006,4.276h.9c2.474,0,4.222,1.7,4.222,4.724,0,3.291-1.964,4.725-4.261,4.725h-.863ZM85.16,17.441h5.456c4.1,0,7.516-3.694,7.516-8.441S94.736.56,90.616.56H85.16Zm-17.213,0h3.844V7.1h.041L78.88,17.441h3.846V.56H78.88V10.881h-.041L71.791.56H67.947ZM60.838,11.15h-3.2l1.588-5.374h.04Zm1.041,3.358.962,2.932h4.1L61.369.56h-4.2L51.477,17.441h4.083l1.022-2.932ZM46.489.56H42.643V17.441H51.1V13.725H46.489Z" transform="translate(-9.001 0)" fill="#3a3939"/></g></g></g></svg>