<svg id="Ebene_1" data-name="Ebene 1" xmlns="http://www.w3.org/2000/svg" viewBox="0 0 598 136.14"><defs><style>.cls-1{fill:#424845;}.cls-2{fill:#c20e1a;}.cls-3{fill:#de9926;}</style></defs><title>max-schweizer</title><path class="cls-1" d="M365.23,67.59c1.31,5.43,6,23.42,6.62,24.93,1,2.26,3.2,2.6,7.44,2.6,2.88,0,5.85-.56,6.67-3.51,1.4-5,8.07-32.59,8.67-35.2.57-2.42,0-2.91-1.1-3.64a13.91,13.91,0,0,0-7.42-1.62c-1.59.14-2.14,1-2.66,3.48s-5.95,28.21-5.95,28.21-3.69-17-6.17-28.05c-.44-2-2.3-4.06-6.1-4.06s-5.67,2.1-6.11,4.06C356.64,65.85,353,82.84,353,82.84s-5.41-25.66-6-28.21-1.08-3.36-2.66-3.61a14.65,14.65,0,0,0-7.41,1.88c-1.09.75-1.68,1.09-1.11,3.51.61,2.61,7.28,30.18,8.67,35.2.82,3,3.79,3.51,6.67,3.51,4.24,0,6.46-.34,7.44-2.6.65-1.51,5.32-19.5,6.63-24.93"/><path class="cls-1" d="M508.45,84.73H489.14l17.41-21.21a20.22,20.22,0,0,0,2.7-4.27c.43-1.09.37-2.23.28-4.23s-.74-3.3-3.46-3.3H479.36c-1.69,0-2.77,2-2.77,4.66s.82,4.65,2.77,4.65h17.38s-18,22.06-19.88,24.3c-1.21,1.44-.94,3.12-.92,4.42,0,1.79.39,4.3,2.94,4.3h29c2.12,0,3.57-2,3.57-4.66C511.45,86.49,510.36,84.73,508.45,84.73Z"/><path class="cls-1" d="M436.41,92.89c1.85-.77,2.69-1,3.15-2.17.75-1.83-.92-5.72-2.5-6.59-.94-.52-1.89-.26-3.23.27a24.33,24.33,0,0,1-9.77,2.11c-8.78,0-10.43-5.86-10.43-10.61h20.08c3.45,0,6.65-.28,6.65-4.92,0-12-5.56-20.37-18-20.37s-20.45,9.33-20.45,22.83c0,15.62,8.6,22,20.92,22A39.56,39.56,0,0,0,436.41,92.89ZM413.63,68c.28-2.37.82-9.5,8.1-9.5,6.44,0,6.88,6,6.88,9.5Z"/><path class="cls-1" d="M313.43,50.6c-6.63,0-10.53,3-13.05,4.84l.7-21.42c0-2.05-2.4-2.76-5.68-2.76s-5.68.71-5.68,2.76L289,92.31c0,2,2.41,2.76,5.69,2.76s5.68-.71,5.68-2.76V63.07c1.21-1,4.26-3.56,8.18-3.56,4.76,0,5.87,3.91,5.87,7.13V92.31c0,2,2.41,2.76,5.69,2.76s5.28-.82,5.28-2.76V64C325.4,56.84,322,50.6,313.43,50.6Z"/><path class="cls-1" d="M275.28,93.42c1.85-.77,3.27-1.65,3.47-2.31.57-1.84-1.4-5.6-3-6.43-1-.5-2-.21-3.18.49a10.55,10.55,0,0,1-5.84,1.75c-7.18,0-11.09-4.76-11.09-13.66,0-9.33,4.28-14.18,10.62-14.18a12.75,12.75,0,0,1,7,2.34,4.12,4.12,0,0,0,2.28.77c1.95-.48,4.25-4.28,4.13-6.17a3.12,3.12,0,0,0-1.79-2.38c-2.67-1.73-7.95-3-11.58-3-13.81,0-22,8.91-22,23.25s8,21.56,21,21.56A28.71,28.71,0,0,0,275.28,93.42Z"/><path class="cls-1" d="M205.23,92c3.44,1.87,10.39,3.46,15.36,3.46,9.89,0,16-5.86,16-13.66,0-4.93-2.61-8.15-6.25-10.36-6.63-4-15-3.65-15-8.23,0-2.89,2.61-4.08,6.16-4.08a28.3,28.3,0,0,1,9.63,1.79,2.79,2.79,0,0,0,2.19.11c1.65-.85,2.94-4.4,2.53-6-.24-1-1.07-1.41-1.91-1.78a37.72,37.72,0,0,0-12.82-2.55c-10.08,0-16.52,6.11-16.52,13.83A10.78,10.78,0,0,0,210,74c6.16,3.74,15.31,3.74,15.31,8.66,0,3.06-2.61,4.24-5.69,4.24-5,0-11-2.75-12.81-3.53a2.25,2.25,0,0,0-2.27.44,6.8,6.8,0,0,0-1.91,5.59C203,90.7,203.86,91.2,205.23,92Z"/><path class="cls-1" d="M458.58,50.69c-3.71,0-5.68.7-5.68,2.75V92.31c0,2,2.41,2.76,5.68,2.76s5.68-.71,5.68-2.76V53.44C464.26,51.39,461.86,50.69,458.58,50.69Z"/><path class="cls-1" d="M597.64,52.3c-.72-1.45-1.74-1.73-5.9-2-4.63-.34-8.81,3.2-11.46,6.57-.54-3.44-.36-6.63-3.18-7.37-1.41-.37-3.47.22-5.63,1-1.77.64-3.28,1.6-2.87,3.91a156.22,156.22,0,0,1,1.41,18V92.31c0,2,2.41,2.76,5.68,2.76s5.68-.71,5.68-2.76V66c4.68-6.93,10.36-5.44,11.17-5.16,2.45.86,4.21.78,5.23-4A8.83,8.83,0,0,0,597.64,52.3Z"/><path class="cls-1" d="M553.32,92.88c1.86-.77,2.69-1,3.15-2.16.75-1.83-.92-5.73-2.5-6.59-.94-.52-1.89-.26-3.23.27A24.26,24.26,0,0,1,541,86.5c-8.78,0-10.44-5.86-10.44-10.61h20.08c3.45,0,6.65-.28,6.65-4.92,0-12-5.55-20.37-18-20.37s-20.45,9.33-20.45,22.83c0,15.62,8.59,22,20.91,22A39.32,39.32,0,0,0,553.32,92.88ZM530.54,68c.28-2.38.82-9.51,8.1-9.51,6.45,0,6.89,6,6.89,9.51Z"/><path class="cls-1" d="M451.94,36.54a6.68,6.68,0,1,1,6.68,6.68A6.68,6.68,0,0,1,451.94,36.54Z"/><path class="cls-2" d="M67.42,34.37A33.64,33.64,0,1,1,33.77,68,33.64,33.64,0,0,1,67.42,34.37m0-34A67.66,67.66,0,1,0,93.77,5.67,67.32,67.32,0,0,0,67.42.33Z"/><path class="cls-3" d="M96.6,5.09a63,63,0,1,1-62.83,63,62.89,62.89,0,0,1,62.83-63M96.6,0A68,68,0,0,0,28.68,68.07a68.08,68.08,0,0,0,41.48,62.71,67.79,67.79,0,0,0,74.46-14.58A68.15,68.15,0,0,0,123,5.35,67.34,67.34,0,0,0,96.6,0Z"/></svg>