<svg xmlns="http://www.w3.org/2000/svg" width="64.24mm" height="13.36mm" viewBox="0 0 182.09 37.86">
  <title>Element 1</title>
  <g id="Ebene_2" data-name="Ebene 2">
    <g id="Ebene_1-2" data-name="Ebene 1">
      <rect x="0.28" y="0.81" width="43.5" height="22" style="fill: #fff"/>
      <path d="M59,37.68H52.77V27.82h1v8.91H59Zm11.5,0h-1V27.82h1Zm19.36-.36a13.07,13.07,0,0,1-3.45.55c-3.23,0-4.91-1.86-4.91-5s1.54-5.27,5.14-5.27a6.72,6.72,0,0,1,3.36.77l-.46.86a6.17,6.17,0,0,0-3-.73c-3,0-4,2.09-4,4.36s1,4,4,4a9.52,9.52,0,0,0,2.32-.32V33.5H86.23v-.91h3.64Zm18.91.36h-1V33h-5.54v4.64h-1V27.82h1v4.32h5.54V27.82h1Zm14.64,0h-1v-9H119v-.91h7.82v.91h-3.36Zm14.64,0h-1V27.82h1Zm19.32,0H156l-5.59-8.46h0c0,2.82,0,8,0,8.46h-1V27.82h1.27l5.64,8.5h0c0-2.82,0-8,0-8.5h1ZM44.18,23.14V.59H0V23.14Zm-1-1H22.55V1.55H43.18ZM32.91,18.77A6.91,6.91,0,1,0,26,11.86a6.91,6.91,0,0,0,6.91,6.91Zm-21.64-.14A6.77,6.77,0,1,1,18,11.86a6.79,6.79,0,0,1-6.77,6.77Zm80.86,4.5H75.27V.59H91.86V5.68H82.55V9.14h8.73v5H82.55V18h9.59Zm24.23-.77a34.82,34.82,0,0,1-9.45,1.32c-8.23,0-13-3.86-13-11.5C94,4.73,98.59,0,107.91,0a19.86,19.86,0,0,1,8.64,1.82l-2,4.86A16.44,16.44,0,0,0,108,5.27c-4.91,0-6.82,3.14-6.82,6.73,0,3.91,2.27,6.5,6.45,6.5a5,5,0,0,0,1.86-.27v-4H106V9.5h10.32Zm20.18.77H119.68V.59h16.59V5.68H127V9.14h8.73v5H127V18h9.59Zm24.36,0h-9.46l-6-15.64h0c0,5.23.09,15.18.09,15.64h-6.36V.59h9.55l5.86,15.23h0c0-5.09,0-14.77,0-15.23h6.32Zm15.23,0h-7.54V5.82h-5.86V.59h19.36V5.82h-6ZM60.23,10.27v-5h1.46c1.73,0,3.41.18,3.41,2.45s-1.59,2.59-3.41,2.59ZM73,23.14l-4-10c2.09-1,3.59-2.54,3.59-6.09,0-4.91-2.86-6.5-8.77-6.5h-11V23.14h7.45V14.82h2.09l2.54,8.32Zm103.5,14.18a12.82,12.82,0,0,1-3.5.55c-3.14,0-4.86-1.86-4.86-5s1.54-5.27,5.14-5.27a6.72,6.72,0,0,1,3.36.77l-.46.86a6.17,6.17,0,0,0-3-.73c-3,0-4,2.09-4,4.36s1,4,4,4a9.51,9.51,0,0,0,2.32-.32V33.5h-2.64v-.91h3.64Z"/>
    </g>
  </g>
</svg>
