<?xml version="1.0" encoding="utf-8"?>
<!-- Generator: Adobe Illustrator 25.0.0, SVG Export Plug-In . SVG Version: 6.00 Build 0)  -->
<svg version="1.1" id="Ebene_1" xmlns="http://www.w3.org/2000/svg" xmlns:xlink="http://www.w3.org/1999/xlink" x="0px" y="0px"
	 viewBox="0 0 180 74.6" style="enable-background:new 0 0 180 74.6;" xml:space="preserve">
<style type="text/css">
	.st0{fill:#1A171B;}
	.st1{fill:#FFDA00;}
</style>
<g id="Logo">
	<polygon class="st0" points="75.7,24.6 81.8,24.6 81.8,24.6 81.8,25.9 81.8,25.9 77.6,32.4 77.6,32.4 80.4,32.4 80.4,32.4 
		80.4,30.5 80.4,30.5 81.8,30.5 81.8,30.5 81.8,33.8 81.8,33.8 75.6,33.8 75.6,33.8 75.6,32.5 75.6,32.5 79.8,25.9 79.8,25.9 
		77.2,25.9 77.2,25.9 77.2,27.7 77.2,27.7 75.7,27.7 75.7,27.7 75.7,24.6 	"/>
	<polygon class="st0" points="85,24.6 91.8,24.6 91.8,24.6 91.8,27.7 91.8,27.7 90.3,27.7 90.3,27.7 90.3,26 90.3,26 87.7,26 
		87.7,26 87.7,28.3 87.7,28.3 90,28.3 90,28.3 90,29.6 90,29.6 87.7,29.6 87.7,29.6 87.7,32.5 87.7,32.5 90.3,32.5 90.3,32.5 
		90.3,30.5 90.3,30.5 91.8,30.5 91.8,30.5 91.8,33.8 91.8,33.8 85,33.8 85,33.8 85,32.5 85,32.5 85.9,32.5 85.9,32.5 85.9,25.9 
		85.9,25.9 85,25.9 85,25.9 85,24.6 	"/>
	<polygon class="st0" points="95,24.6 98.5,24.6 98.5,24.6 98.5,25.9 98.5,25.9 97.7,25.9 97.7,25.9 97.7,28.3 97.7,28.3 
		100.8,28.3 100.8,28.3 100.8,25.9 100.8,25.9 99.9,25.9 99.9,25.9 99.9,24.6 99.9,24.6 103.4,24.6 103.4,24.6 103.4,25.9 
		103.4,25.9 102.6,25.9 102.6,25.9 102.6,32.5 102.6,32.5 103.4,32.5 103.4,32.5 103.4,33.8 103.4,33.8 99.9,33.8 99.9,33.8 
		99.9,32.5 99.9,32.5 100.8,32.5 100.8,32.5 100.8,29.7 100.8,29.7 97.7,29.7 97.7,29.7 97.7,32.5 97.7,32.5 98.5,32.5 98.5,32.5 
		98.5,33.8 98.5,33.8 95,33.8 95,33.8 95,32.5 95,32.5 95.9,32.5 95.9,32.5 95.9,25.9 95.9,25.9 95,25.9 95,25.9 95,24.6 	"/>
	<polygon class="st0" points="106.3,24.6 109.8,24.6 109.8,24.6 112.3,32.5 112.3,32.5 112.3,25.9 112.3,25.9 111.6,25.9 
		111.6,25.9 111.6,24.6 111.6,24.6 114.6,24.6 114.6,24.6 114.6,25.9 114.6,25.9 113.8,25.9 113.8,25.9 113.8,33.8 113.8,33.8 
		111.1,33.8 111.1,33.8 108.6,25.9 108.6,25.9 108.6,32.5 108.6,32.5 109.4,32.5 109.4,32.5 109.4,33.8 109.4,33.8 106.3,33.8 
		106.3,33.8 106.3,32.5 106.3,32.5 107.2,32.5 107.2,32.5 107.2,25.9 107.2,25.9 106.3,25.9 106.3,25.9 106.3,24.6 	"/>
	<path class="st0" d="M117.5,24.6h3.1l0,0c1.5,0,2.6,0.1,3.4,0.9l0,0c0.9,0.9,1.1,2.4,1.1,3.7l0,0c0,1.8-0.4,3.3-1.6,4l0,0
		c-0.9,0.5-2,0.5-2.9,0.6l0,0h-3.1l0,0v-1.3l0,0h0.8l0,0v-6.5l0,0h-0.8l0,0V24.6L117.5,24.6z M120.1,25.9v6.5l0,0h0.7l0,0
		c0.6,0,1.2,0,1.7-0.5l0,0c0.6-0.6,0.9-1.7,0.9-2.8l0,0c0-0.5-0.1-1.4-0.3-2l0,0c-0.5-1.2-1.4-1.3-2.1-1.3l0,0H120.1L120.1,25.9z"/>
	<polygon class="st0" points="128,24.6 134.7,24.6 134.7,24.6 134.7,27.7 134.7,27.7 133.3,27.7 133.3,27.7 133.3,26 133.3,26 
		130.6,26 130.6,26 130.6,28.3 130.6,28.3 132.9,28.3 132.9,28.3 132.9,29.6 132.9,29.6 130.6,29.6 130.6,29.6 130.6,32.5 
		130.6,32.5 133.3,32.5 133.3,32.5 133.3,30.5 133.3,30.5 134.7,30.5 134.7,30.5 134.7,33.8 134.7,33.8 128,33.8 128,33.8 128,32.5 
		128,32.5 128.9,32.5 128.9,32.5 128.9,25.9 128.9,25.9 128,25.9 128,25.9 128,24.6 	"/>
	<path class="st0" d="M142.4,24.6c0.6,0,1.4,0,2,0.5l0,0c0.5,0.4,0.7,1.1,0.7,1.8l0,0c0,1.4-0.8,2-1.5,2.2l0,0c-0.1,0-0.2,0-0.3,0.1
		l0,0l0.3,0l0,0c0.8,0.2,0.9,0.8,1.1,1.8l0,0l0.2,1.5l0,0h0.8l0,0v1.3l0,0h-2.3l0,0l-0.5-2.8l0,0c-0.1-0.3-0.1-0.6-0.3-0.8l0,0
		c-0.3-0.4-0.6-0.4-1-0.4l0,0h-1.1l0,0v2.7l0,0h0.9l0,0v1.3l0,0H138l0,0v-1.3l0,0h0.9l0,0v-6.5l0,0H138l0,0v-1.3l0,0H142.4
		L142.4,24.6z M140.6,25.9v2.5l0,0h1.3l0,0c0.4,0,1.4,0,1.4-1.2l0,0c0-0.3,0-0.5-0.2-0.7l0,0c-0.3-0.5-0.7-0.5-1.3-0.5l0,0H140.6
		L140.6,25.9z"/>
	<polygon class="st0" points="75.1,41.6 78.6,41.6 78.6,41.6 78.6,42.9 78.6,42.9 77.7,42.9 77.7,42.9 77.7,45.3 77.7,45.3 
		80.9,45.3 80.9,45.3 80.9,42.9 80.9,42.9 80,42.9 80,42.9 80,41.6 80,41.6 83.5,41.6 83.5,41.6 83.5,42.9 83.5,42.9 82.6,42.9 
		82.6,42.9 82.6,49.5 82.6,49.5 83.5,49.5 83.5,49.5 83.5,50.8 83.5,50.8 80,50.8 80,50.8 80,49.5 80,49.5 80.9,49.5 80.9,49.5 
		80.9,46.7 80.9,46.7 77.7,46.7 77.7,46.7 77.7,49.5 77.7,49.5 78.6,49.5 78.6,49.5 78.6,50.8 78.6,50.8 75.1,50.8 75.1,50.8 
		75.1,49.5 75.1,49.5 76,49.5 76,49.5 76,42.9 76,42.9 75.1,42.9 75.1,42.9 75.1,41.6 	"/>
	<path class="st0" d="M87.6,42.1c0.9-0.6,2.1-0.8,3.3-0.6l0,0c2.7,0.6,2.9,3.7,2.9,4.8l0,0c0,1.1-0.2,2.2-0.8,3.1l0,0
		c-0.3,0.6-1.1,1.7-3.1,1.7l0,0c-2.8,0-3.9-2.1-3.9-4.9l0,0C85.9,44.5,86.4,42.9,87.6,42.1L87.6,42.1z M89.9,42.8
		c-1.5,0-2.2,1.5-2.2,3.3l0,0c0,0.7,0.1,1.6,0.4,2.2l0,0c0.5,1.3,1.5,1.3,1.8,1.3l0,0c0.5,0,1-0.2,1.3-0.5l0,0
		c0.4-0.4,0.8-1.4,0.8-2.8l0,0C91.9,45.1,91.7,42.8,89.9,42.8L89.9,42.8z"/>
	<polygon class="st0" points="96.2,41.6 99.6,41.6 99.6,41.6 99.6,42.9 99.6,42.9 98.8,42.9 98.8,42.9 98.8,49.5 98.8,49.5 
		100.9,49.5 100.9,49.5 100.9,47.5 100.9,47.5 102.3,47.5 102.3,47.5 102.3,50.8 102.3,50.8 96.2,50.8 96.2,50.8 96.2,49.5 
		96.2,49.5 97.1,49.5 97.1,49.5 97.1,42.9 97.1,42.9 96.2,42.9 96.2,42.9 96.2,41.6 	"/>
	<polygon class="st0" points="104.8,41.6 110.9,41.6 110.9,41.6 110.9,42.9 110.9,42.9 106.7,49.4 106.7,49.4 109.5,49.4 
		109.5,49.4 109.5,47.5 109.5,47.5 110.9,47.5 110.9,47.5 110.9,50.8 110.9,50.8 104.7,50.8 104.7,50.8 104.7,49.5 104.7,49.5 
		108.9,42.9 108.9,42.9 106.3,42.9 106.3,42.9 106.3,44.7 106.3,44.7 104.8,44.7 104.8,44.7 104.8,41.6 	"/>
	<path class="st0" d="M117.5,41.6h3.3l0,0v1.3l0,0h-0.8l0,0v4.9l0,0c0,0.4,0,0.8,0.2,1.1l0,0c0.3,0.5,0.8,0.6,1.2,0.6l0,0
		c0.2,0,0.6,0,0.9-0.2l0,0c0.5-0.4,0.6-1,0.6-1.4l0,0v-5l0,0h-0.8l0,0v-1.3l0,0h3.4l0,0v1.3l0,0h-0.8l0,0v4.7l0,0
		c0,0.7,0,1.7-0.7,2.4l0,0c-0.5,0.5-1.3,0.9-2.4,0.9l0,0c-0.6,0-1.3-0.1-1.9-0.4l0,0c-1.3-0.7-1.3-2-1.3-2.9l0,0v-4.8l0,0h-0.8l0,0
		V41.6L117.5,41.6z"/>
	<polygon class="st0" points="127.7,41.6 131.3,41.6 131.3,41.6 133.7,49.5 133.7,49.5 133.7,42.9 133.7,42.9 133,42.9 133,42.9 
		133,41.6 133,41.6 136.1,41.6 136.1,41.6 136.1,42.9 136.1,42.9 135.2,42.9 135.2,42.9 135.2,50.8 135.2,50.8 132.5,50.8 
		132.5,50.8 130.1,42.9 130.1,42.9 130.1,49.5 130.1,49.5 130.9,49.5 130.9,49.5 130.9,50.8 130.9,50.8 127.7,50.8 127.7,50.8 
		127.7,49.5 127.7,49.5 128.6,49.5 128.6,49.5 128.6,42.9 128.6,42.9 127.7,42.9 127.7,42.9 127.7,41.6 	"/>
	<path class="st0" d="M138.6,41.6h3.1l0,0c1.5,0,2.5,0.1,3.4,0.9l0,0c0.9,0.9,1.2,2.4,1.2,3.7l0,0c0,1.8-0.4,3.3-1.6,4l0,0
		c-0.9,0.5-2,0.5-2.9,0.6l0,0h-3.1l0,0v-1.3l0,0h0.8l0,0v-6.5l0,0h-0.8l0,0V41.6L138.6,41.6z M141.1,42.9v6.5l0,0h0.7l0,0
		c0.6,0,1.2,0,1.7-0.5l0,0c0.6-0.6,0.9-1.7,0.9-2.8l0,0c0-0.5-0.1-1.4-0.3-2l0,0c-0.5-1.2-1.4-1.3-2.1-1.3l0,0H141.1L141.1,42.9z"/>
	<path class="st0" d="M156.1,41.7c1,0,1.8,0,2.4,0.6l0,0c0.3,0.3,0.8,0.9,0.8,1.8l0,0c0,0.4-0.1,0.9-0.3,1.2l0,0
		c-0.2,0.4-0.6,0.7-1.1,0.8l0,0l-0.3,0.1l0,0l0.3,0l0,0c0.8,0.2,1.6,0.9,1.6,2.2l0,0c0,0.9-0.4,1.5-0.8,1.8l0,0
		c-0.7,0.6-1.7,0.6-2.7,0.6l0,0h-3.5l0,0v-1.3l0,0h0.9l0,0V43l0,0h-0.9l0,0v-1.3l0,0H156.1L156.1,41.7z M155.1,43v2.6l0,0h0.8l0,0
		c0.2,0,0.5,0,0.8-0.1l0,0c0.7-0.2,0.9-0.8,0.9-1.2l0,0c0-0.2-0.1-0.5-0.2-0.6l0,0c-0.3-0.6-0.9-0.6-1.3-0.7l0,0H155.1L155.1,43z
		 M155.1,46.9v2.6l0,0h1l0,0c0.4,0,0.7,0,1-0.1l0,0c0.2-0.1,0.7-0.4,0.7-1.1l0,0c0-0.3-0.1-0.7-0.3-0.9l0,0c-0.3-0.4-0.7-0.4-1-0.4
		l0,0H155.1L155.1,46.9z"/>
	<path class="st0" d="M164,41.6h4.2l0,0v1.3l0,0h-0.7l0,0l2,6.6l0,0h0.8l0,0v1.3l0,0h-3.4l0,0v-1.3l0,0h0.8l0,0l-0.4-1.6l0,0h-2.7
		l0,0l-0.5,1.6l0,0h0.7l0,0v1.3l0,0h-3.1l0,0v-1.3l0,0h0.8l0,0l2.1-6.6l0,0H164l0,0V41.6L164,41.6z M165.9,42.9l-1,3.6l0,0h2l0,0
		L165.9,42.9L165.9,42.9z"/>
	<path class="st0" d="M172.1,41.6h3.4l0,0v1.3l0,0h-0.8l0,0v4.9l0,0c0,0.4,0,0.8,0.2,1.1l0,0c0.3,0.5,0.8,0.6,1.2,0.6l0,0
		c0.2,0,0.6,0,0.9-0.2l0,0c0.5-0.4,0.5-1,0.5-1.4l0,0v-5l0,0h-0.8l0,0v-1.3l0,0h3.4l0,0v1.3l0,0h-0.8l0,0v4.7l0,0
		c0,0.7,0,1.7-0.7,2.4l0,0c-0.5,0.5-1.3,0.9-2.4,0.9l0,0c-0.6,0-1.3-0.1-1.9-0.4l0,0c-1.3-0.7-1.3-2-1.3-2.9l0,0v-4.8l0,0h-0.8l0,0
		V41.6L172.1,41.6z"/>
	<polygon class="st1" points="43.1,46.9 60,23.4 43.1,0 9.5,46.9 	"/>
	<polygon class="st0" points="43.1,50.8 1.3,50.8 17.8,74.6 60.3,74.6 	"/>
	<polygon class="st0" points="0,4.4 17,28.9 34.6,4.4 	"/>
</g>
</svg>
